# MagicaVoxel @ Ephtracy

# group
o 

# material
mtllib chr.mtl
usemtl palette

# normals
vn -1 0 0
vn 1 0 0
vn 0 0 1
vn 0 0 -1
vn 0 -1 0
vn 0 1 0

# texcoords
vt 0.0332031 0.5
vt 0.0605469 0.5
vt 0.0683594 0.5
vt 0.369141 0.5
vt 0.373047 0.5
vt 0.560547 0.5
vt 0.603516 0.5
vt 0.607422 0.5
vt 0.623047 0.5
vt 0.767578 0.5
vt 0.775391 0.5
vt 0.841797 0.5
vt 0.869141 0.5
vt 0.958984 0.5
vt 0.966797 0.5
vt 0.970703 0.5
vt 0.974609 0.5
vt 0.978516 0.5
vt 0.982422 0.5
vt 0.994141 0.5

# verts
v -1 0.3 -2.98023e-08
v -1 0.3 -0.1
v -1 0.6 -2.98023e-08
v -1 0.6 -0.1
v -0.9 0.2 -2.98023e-08
v -0.9 0.2 -0.1
v -0.9 0.3 -2.98023e-08
v -0.9 0.3 -0.1
v -0.9 0.6 -2.98023e-08
v -0.9 0.6 -0.1
v -0.9 0.7 -2.98023e-08
v -0.9 0.7 -0.1
v -0.8 0.1 -2.98023e-08
v -0.8 0.1 -0.1
v -0.8 0.2 -2.98023e-08
v -0.8 0.2 -0.1
v -0.8 0.7 -2.98023e-08
v -0.8 0.7 -0.1
v -0.8 0.8 -2.98023e-08
v -0.8 0.8 -0.1
v -0.7 0 -2.98023e-08
v -0.7 0 -0.1
v -0.7 0.1 -2.98023e-08
v -0.7 0.1 -0.1
v -0.7 0.8 -2.98023e-08
v -0.7 0.8 -0.1
v -0.7 0.9 -2.98023e-08
v -0.7 0.9 -0.1
v -0.6 0.1 -2.98023e-08
v -0.6 0.1 -0.1
v -0.6 0.8 -2.98023e-08
v -0.6 0.8 -0.1
v -0.4 0.4 -2.98023e-08
v -0.4 0.4 -0.1
v -0.4 0.5 -2.98023e-08
v -0.4 0.5 -0.1
v -0.4 0.8 0.1
v -0.4 0.8 -0.2
v -0.4 0.9 0.2
v -0.4 0.9 0.1
v -0.4 0.9 -2.98023e-08
v -0.4 0.9 -0.1
v -0.4 0.9 -0.2
v -0.4 0.9 -0.3
v -0.4 1 0.1
v -0.4 1 -2.98023e-08
v -0.4 1 -0.1
v -0.4 1 -0.2
v -0.4 1.1 0.1
v -0.4 1.1 -2.98023e-08
v -0.4 1.1 -0.1
v -0.4 1.1 -0.2
v -0.4 1.2 0.2
v -0.4 1.2 0.1
v -0.4 1.2 -2.98023e-08
v -0.4 1.2 -0.1
v -0.4 1.2 -0.2
v -0.4 1.2 -0.3
v -0.4 1.3 0.1
v -0.4 1.3 -0.2
v -0.3 0.3 0.2
v -0.3 0.3 0.1
v -0.3 0.3 -2.98023e-08
v -0.3 0.3 -0.1
v -0.3 0.3 -0.2
v -0.3 0.3 -0.3
v -0.3 0.4 0.2
v -0.3 0.4 0.1
v -0.3 0.4 -2.98023e-08
v -0.3 0.4 -0.1
v -0.3 0.4 -0.2
v -0.3 0.4 -0.3
v -0.3 0.5 0.1
v -0.3 0.5 -2.98023e-08
v -0.3 0.5 -0.1
v -0.3 0.6 -2.98023e-08
v -0.3 0.6 -0.1
v -0.3 0.6 -0.2
v -0.3 0.7 0.2
v -0.3 0.7 0.1
v -0.3 0.7 -2.98023e-08
v -0.3 0.7 -0.1
v -0.3 0.7 -0.2
v -0.3 0.7 -0.3
v -0.3 0.8 0.1
v -0.3 0.8 -2.98023e-08
v -0.3 0.8 -0.2
v -0.3 0.8 -0.3
v -0.3 0.9 0.2
v -0.3 0.9 0.1
v -0.3 0.9 -2.98023e-08
v -0.3 0.9 -0.1
v -0.3 0.9 -0.2
v -0.3 0.9 -0.3
v -0.3 0.9 -0.4
v -0.3 1 0.3
v -0.3 1 0.2
v -0.3 1 0.1
v -0.3 1 -2.98023e-08
v -0.3 1 -0.1
v -0.3 1 -0.2
v -0.3 1.1 0.1
v -0.3 1.1 -2.98023e-08
v -0.3 1.1 -0.1
v -0.3 1.1 -0.2
v -0.3 1.2 0.3
v -0.3 1.2 0.2
v -0.3 1.2 0.1
v -0.3 1.2 -2.98023e-08
v -0.3 1.2 -0.1
v -0.3 1.2 -0.2
v -0.3 1.2 -0.3
v -0.3 1.2 -0.4
v -0.3 1.3 0.2
v -0.3 1.3 0.1
v -0.3 1.3 -0.2
v -0.3 1.3 -0.3
v -0.2 0 0.1
v -0.2 0 -2.98023e-08
v -0.2 0 -0.1
v -0.2 0.1 0.1
v -0.2 0.1 -2.98023e-08
v -0.2 0.2 -2.98023e-08
v -0.2 0.2 -0.1
v -0.2 0.3 -2.98023e-08
v -0.2 0.3 -0.1
v -0.2 0.4 0.1
v -0.2 0.4 -2.98023e-08
v -0.2 0.4 -0.1
v -0.2 0.4 -0.2
v -0.2 0.5 0.1
v -0.2 0.5 -2.98023e-08
v -0.2 0.5 -0.1
v -0.2 0.6 0.2
v -0.2 0.6 0.1
v -0.2 0.6 -0.1
v -0.2 0.6 -0.2
v -0.2 0.6 -0.3
v -0.2 0.7 0.2
v -0.2 0.7 0.1
v -0.2 0.7 -2.98023e-08
v -0.2 0.7 -0.2
v -0.2 0.7 -0.3
v -0.2 0.7 -0.4
v -0.2 0.8 0.1
v -0.2 0.8 -2.98023e-08
v -0.2 0.8 -0.3
v -0.2 0.8 -0.4
v -0.2 0.8 -0.5
v -0.2 0.9 -0.3
v -0.2 0.9 -0.4
v -0.2 1.1 -0.4
v -0.2 1.1 -0.5
v -0.2 1.3 0.1
v -0.2 1.3 -0.2
v -0.2 1.4 0.1
v -0.2 1.4 -0.2
v -0.1 0.4 -0.2
v -0.1 0.4 -0.3
v -0.1 0.4 -0.6
v -0.1 0.6 -0.2
v -0.1 0.6 -0.3
v -0.1 0.7 -0.3
v -0.1 0.7 -0.4
v -0.1 0.7 -0.6
v -0.1 0.9 0.2
v -0.1 0.9 0.1
v -0.1 1 0.2
v -0.1 1 0.1
v 0.1 0 0.1
v 0.1 0 -2.98023e-08
v 0.1 0 -0.1
v 0.1 0.1 0.1
v 0.1 0.1 -2.98023e-08
v 0.1 0.2 -2.98023e-08
v 0.1 0.2 -0.1
v 0.1 0.3 -2.98023e-08
v 0.1 0.3 -0.1
v 0.1 0.4 -0.2
v 0.1 0.4 -0.3
v 0.1 0.5 -0.3
v 0.1 0.5 -0.4
v 0.1 0.5 -0.5
v 0.1 0.6 0.2
v 0.1 0.6 0.1
v 0.1 0.6 -0.2
v 0.1 0.6 -0.3
v 0.1 0.7 0.2
v 0.1 0.7 0.1
v 0.1 0.7 -0.3
v 0.1 0.7 -0.5
v 0.1 0.8 -0.3
v 0.1 0.8 -0.5
v 0.1 0.9 -0.3
v 0.1 0.9 -0.5
v 0.2 0.7 0.2
v 0.2 0.7 0.1
v 0.2 0.8 0.1
v 0.2 0.9 0.1
v 0.2 1 0.2
v 0.2 1 0.1
v 0.3 0.5 -2.98023e-08
v 0.3 0.5 -0.1
v 0.3 0.6 -2.98023e-08
v 0.3 0.6 -0.1
v 0.4 0.4 -2.98023e-08
v 0.4 0.4 -0.1
v 0.4 0.5 -2.98023e-08
v 0.4 0.5 -0.1
v -0.9 0.3 -2.98023e-08
v -0.9 0.3 -0.1
v -0.9 0.6 -2.98023e-08
v -0.9 0.6 -0.1
v -0.8 0.2 -2.98023e-08
v -0.8 0.2 -0.1
v -0.8 0.3 -2.98023e-08
v -0.8 0.3 -0.1
v -0.8 0.6 -2.98023e-08
v -0.8 0.6 -0.1
v -0.8 0.7 -2.98023e-08
v -0.8 0.7 -0.1
v -0.7 0.1 -2.98023e-08
v -0.7 0.1 -0.1
v -0.7 0.2 -2.98023e-08
v -0.7 0.2 -0.1
v -0.7 0.7 -2.98023e-08
v -0.7 0.7 -0.1
v -0.7 0.8 -2.98023e-08
v -0.7 0.8 -0.1
v -0.5 0 -2.98023e-08
v -0.5 0 -0.1
v -0.5 0.3 -2.98023e-08
v -0.5 0.3 -0.1
v -0.5 0.4 -2.98023e-08
v -0.5 0.4 -0.1
v -0.5 0.9 -2.98023e-08
v -0.5 0.9 -0.1
v -0.4 0.3 -2.98023e-08
v -0.4 0.3 -0.1
v -0.4 0.4 -2.98023e-08
v -0.4 0.4 -0.1
v -0.3 0.4 -2.98023e-08
v -0.3 0.4 -0.1
v -0.3 0.5 -2.98023e-08
v -0.3 0.5 -0.1
v -0.2 0.7 0.2
v -0.2 0.7 0.1
v -0.2 0.8 0.1
v -0.2 0.9 0.1
v -0.2 1 0.2
v -0.2 1 0.1
v -0.1 0 0.1
v -0.1 0 -2.98023e-08
v -0.1 0 -0.1
v -0.1 0.1 0.1
v -0.1 0.1 -2.98023e-08
v -0.1 0.2 -2.98023e-08
v -0.1 0.2 -0.1
v -0.1 0.3 -2.98023e-08
v -0.1 0.3 -0.1
v -0.1 0.6 0.2
v -0.1 0.6 0.1
v -0.1 0.7 0.2
v -0.1 0.7 0.1
v -0.1 0.7 -0.3
v -0.1 0.7 -0.4
v -0.1 0.8 -0.3
v -0.1 0.8 -0.4
v -0.1 0.8 -0.5
v -0.1 0.9 -0.3
v -0.1 0.9 -0.5
v 0 0.4 -0.2
v 0 0.4 -0.3
v 0 0.5 -0.3
v 0 0.5 -0.4
v 0 0.5 -0.5
v 0 0.6 -0.2
v 0 0.6 -0.3
v 0 0.7 -0.3
v 0 0.7 -0.5
v 0 0.9 0.2
v 0 0.9 0.1
v 0 1 0.2
v 0 1 0.1
v 0.2 0 0.1
v 0.2 0 -2.98023e-08
v 0.2 0 -0.1
v 0.2 0.1 0.1
v 0.2 0.1 -2.98023e-08
v 0.2 0.2 -2.98023e-08
v 0.2 0.2 -0.1
v 0.2 0.3 -2.98023e-08
v 0.2 0.3 -0.1
v 0.2 0.4 0.1
v 0.2 0.4 -2.98023e-08
v 0.2 0.4 -0.1
v 0.2 0.4 -0.2
v 0.2 0.4 -0.3
v 0.2 0.4 -0.6
v 0.2 0.5 0.1
v 0.2 0.5 -2.98023e-08
v 0.2 0.5 -0.1
v 0.2 0.5 -0.2
v 0.2 0.6 0.2
v 0.2 0.6 0.1
v 0.2 0.6 -2.98023e-08
v 0.2 0.6 -0.1
v 0.2 0.6 -0.2
v 0.2 0.6 -0.3
v 0.2 0.7 0.2
v 0.2 0.7 0.1
v 0.2 0.7 -2.98023e-08
v 0.2 0.7 -0.3
v 0.2 0.7 -0.6
v 0.2 0.8 0.1
v 0.2 0.8 -2.98023e-08
v 0.2 0.8 -0.3
v 0.2 0.8 -0.5
v 0.2 0.9 -0.3
v 0.2 0.9 -0.4
v 0.2 1.1 -0.4
v 0.2 1.1 -0.5
v 0.2 1.3 0.1
v 0.2 1.3 -0.1
v 0.2 1.3 -0.2
v 0.2 1.4 0.1
v 0.2 1.4 -0.2
v 0.3 0.3 0.2
v 0.3 0.3 0.1
v 0.3 0.3 -2.98023e-08
v 0.3 0.3 -0.1
v 0.3 0.3 -0.2
v 0.3 0.3 -0.3
v 0.3 0.4 0.2
v 0.3 0.4 0.1
v 0.3 0.4 -2.98023e-08
v 0.3 0.4 -0.1
v 0.3 0.4 -0.2
v 0.3 0.4 -0.3
v 0.3 0.5 0.1
v 0.3 0.5 -2.98023e-08
v 0.3 0.6 -2.98023e-08
v 0.3 0.6 -0.1
v 0.3 0.6 -0.3
v 0.3 0.7 0.2
v 0.3 0.7 0.1
v 0.3 0.7 -2.98023e-08
v 0.3 0.7 -0.1
v 0.3 0.7 -0.2
v 0.3 0.8 0.1
v 0.3 0.8 -2.98023e-08
v 0.3 0.8 -0.1
v 0.3 0.8 -0.2
v 0.3 0.8 -0.3
v 0.3 0.9 0.2
v 0.3 0.9 0.1
v 0.3 0.9 -2.98023e-08
v 0.3 0.9 -0.1
v 0.3 0.9 -0.2
v 0.3 0.9 -0.3
v 0.3 0.9 -0.4
v 0.3 1 0.3
v 0.3 1 0.2
v 0.3 1 0.1
v 0.3 1 -2.98023e-08
v 0.3 1 -0.1
v 0.3 1 -0.2
v 0.3 1.1 0.3
v 0.3 1.1 0.2
v 0.3 1.1 0.1
v 0.3 1.1 -2.98023e-08
v 0.3 1.1 -0.1
v 0.3 1.1 -0.2
v 0.3 1.2 0.3
v 0.3 1.2 0.2
v 0.3 1.2 0.1
v 0.3 1.2 -2.98023e-08
v 0.3 1.2 -0.1
v 0.3 1.2 -0.2
v 0.3 1.2 -0.3
v 0.3 1.2 -0.4
v 0.3 1.3 0.2
v 0.3 1.3 0.1
v 0.3 1.3 -0.2
v 0.3 1.3 -0.3
v 0.4 0.3 -2.98023e-08
v 0.4 0.3 -0.1
v 0.4 0.4 -2.98023e-08
v 0.4 0.4 -0.1
v 0.4 0.5 -2.98023e-08
v 0.4 0.5 -0.1
v 0.4 0.6 -2.98023e-08
v 0.4 0.6 -0.1
v 0.4 0.7 -0.1
v 0.4 0.7 -0.2
v 0.4 0.8 0.1
v 0.4 0.8 -0.1
v 0.4 0.8 -0.2
v 0.4 0.9 0.2
v 0.4 0.9 0.1
v 0.4 0.9 -2.98023e-08
v 0.4 0.9 -0.1
v 0.4 0.9 -0.2
v 0.4 0.9 -0.3
v 0.4 1 0.1
v 0.4 1 -2.98023e-08
v 0.4 1 -0.1
v 0.4 1 -0.2
v 0.4 1.1 0.1
v 0.4 1.1 -2.98023e-08
v 0.4 1.1 -0.1
v 0.4 1.1 -0.2
v 0.4 1.2 0.2
v 0.4 1.2 0.1
v 0.4 1.2 -2.98023e-08
v 0.4 1.2 -0.1
v 0.4 1.2 -0.2
v 0.4 1.2 -0.3
v 0.4 1.3 0.1
v 0.4 1.3 -0.2
v 0.5 0.4 -2.98023e-08
v 0.5 0.4 -0.1
v 0.5 0.5 -2.98023e-08
v 0.5 0.5 -0.1
v -0.3 1 0.3
v -0.3 1.2 0.3
v 0 1 0.3
v 0 1.2 0.3
v 0.2 1.1 0.3
v 0.2 1.2 0.3
v 0.3 1 0.3
v 0.3 1.1 0.3
v 0.3 1.2 0.3
v -0.4 0.9 0.2
v -0.4 1.2 0.2
v -0.3 0.3 0.2
v -0.3 0.4 0.2
v -0.3 0.7 0.2
v -0.3 0.9 0.2
v -0.3 1 0.2
v -0.3 1.2 0.2
v -0.3 1.3 0.2
v -0.2 0.3 0.2
v -0.2 0.4 0.2
v -0.2 0.6 0.2
v -0.2 0.7 0.2
v -0.2 1 0.2
v -0.2 1.2 0.2
v -0.2 1.3 0.2
v -0.1 0.3 0.2
v -0.1 0.4 0.2
v -0.1 0.6 0.2
v -0.1 0.7 0.2
v -0.1 0.9 0.2
v -0.1 1 0.2
v 0 0.3 0.2
v 0 0.4 0.2
v 0 0.9 0.2
v 0 1 0.2
v 0 1.2 0.2
v 0.1 0.3 0.2
v 0.1 0.4 0.2
v 0.1 0.6 0.2
v 0.1 0.7 0.2
v 0.2 0.3 0.2
v 0.2 0.4 0.2
v 0.2 0.6 0.2
v 0.2 0.7 0.2
v 0.2 1 0.2
v 0.2 1.2 0.2
v 0.3 0.3 0.2
v 0.3 0.4 0.2
v 0.3 0.7 0.2
v 0.3 0.9 0.2
v 0.3 1 0.2
v 0.3 1.1 0.2
v 0.3 1.2 0.2
v 0.3 1.3 0.2
v 0.4 0.9 0.2
v 0.4 1.2 0.2
v -0.4 0.8 0.1
v -0.4 0.9 0.1
v -0.4 1.2 0.1
v -0.4 1.3 0.1
v -0.3 0.5 0.1
v -0.3 0.7 0.1
v -0.3 0.8 0.1
v -0.3 0.9 0.1
v -0.3 1.2 0.1
v -0.3 1.3 0.1
v -0.2 0 0.1
v -0.2 0.1 0.1
v -0.2 0.4 0.1
v -0.2 0.5 0.1
v -0.2 0.6 0.1
v -0.2 0.7 0.1
v -0.2 0.8 0.1
v -0.2 0.9 0.1
v -0.2 1 0.1
v -0.2 1.3 0.1
v -0.2 1.4 0.1
v -0.1 0 0.1
v -0.1 0.1 0.1
v -0.1 0.4 0.1
v -0.1 0.6 0.1
v -0.1 0.7 0.1
v -0.1 0.8 0.1
v -0.1 0.9 0.1
v -0.1 1 0.1
v 0 0.4 0.1
v 0 0.6 0.1
v 0 0.7 0.1
v 0 0.8 0.1
v 0 0.9 0.1
v 0 1 0.1
v 0.1 0 0.1
v 0.1 0.1 0.1
v 0.1 0.4 0.1
v 0.1 0.5 0.1
v 0.1 0.6 0.1
v 0.1 0.7 0.1
v 0.1 0.8 0.1
v 0.1 0.9 0.1
v 0.2 0 0.1
v 0.2 0.1 0.1
v 0.2 0.4 0.1
v 0.2 0.5 0.1
v 0.2 0.6 0.1
v 0.2 0.7 0.1
v 0.2 0.8 0.1
v 0.2 0.9 0.1
v 0.2 1 0.1
v 0.2 1.3 0.1
v 0.2 1.4 0.1
v 0.3 0.5 0.1
v 0.3 0.7 0.1
v 0.3 0.8 0.1
v 0.3 0.9 0.1
v 0.3 1.2 0.1
v 0.3 1.3 0.1
v 0.4 0.8 0.1
v 0.4 0.9 0.1
v 0.4 1.2 0.1
v 0.4 1.3 0.1
v -1 0.3 -2.98023e-08
v -1 0.6 -2.98023e-08
v -0.9 0.2 -2.98023e-08
v -0.9 0.3 -2.98023e-08
v -0.9 0.6 -2.98023e-08
v -0.9 0.7 -2.98023e-08
v -0.8 0.1 -2.98023e-08
v -0.8 0.2 -2.98023e-08
v -0.8 0.3 -2.98023e-08
v -0.8 0.6 -2.98023e-08
v -0.8 0.7 -2.98023e-08
v -0.8 0.8 -2.98023e-08
v -0.7 0 -2.98023e-08
v -0.7 0.1 -2.98023e-08
v -0.7 0.2 -2.98023e-08
v -0.7 0.7 -2.98023e-08
v -0.7 0.8 -2.98023e-08
v -0.7 0.9 -2.98023e-08
v -0.6 0 -2.98023e-08
v -0.6 0.1 -2.98023e-08
v -0.6 0.8 -2.98023e-08
v -0.6 0.9 -2.98023e-08
v -0.5 0 -2.98023e-08
v -0.5 0.3 -2.98023e-08
v -0.5 0.4 -2.98023e-08
v -0.5 0.9 -2.98023e-08
v -0.4 0.3 -2.98023e-08
v -0.4 0.4 -2.98023e-08
v -0.4 0.5 -2.98023e-08
v -0.4 0.9 -2.98023e-08
v -0.4 1 -2.98023e-08
v -0.4 1.1 -2.98023e-08
v -0.4 1.2 -2.98023e-08
v -0.3 0.4 -2.98023e-08
v -0.3 0.5 -2.98023e-08
v -0.3 0.7 -2.98023e-08
v -0.3 0.8 -2.98023e-08
v -0.3 0.9 -2.98023e-08
v -0.3 1 -2.98023e-08
v -0.3 1.1 -2.98023e-08
v -0.3 1.2 -2.98023e-08
v -0.2 0.1 -2.98023e-08
v -0.2 0.2 -2.98023e-08
v -0.2 0.3 -2.98023e-08
v -0.2 0.7 -2.98023e-08
v -0.2 0.8 -2.98023e-08
v -0.1 0.1 -2.98023e-08
v -0.1 0.2 -2.98023e-08
v -0.1 0.3 -2.98023e-08
v 0.1 0.1 -2.98023e-08
v 0.1 0.2 -2.98023e-08
v 0.1 0.3 -2.98023e-08
v 0.2 0.1 -2.98023e-08
v 0.2 0.2 -2.98023e-08
v 0.2 0.3 -2.98023e-08
v 0.2 0.7 -2.98023e-08
v 0.2 0.8 -2.98023e-08
v 0.3 0.3 -2.98023e-08
v 0.3 0.4 -2.98023e-08
v 0.3 0.5 -2.98023e-08
v 0.3 0.6 -2.98023e-08
v 0.3 0.7 -2.98023e-08
v 0.3 0.8 -2.98023e-08
v 0.3 0.9 -2.98023e-08
v 0.3 1 -2.98023e-08
v 0.3 1.1 -2.98023e-08
v 0.3 1.2 -2.98023e-08
v 0.4 0.3 -2.98023e-08
v 0.4 0.4 -2.98023e-08
v 0.4 0.5 -2.98023e-08
v 0.4 0.6 -2.98023e-08
v 0.4 0.9 -2.98023e-08
v 0.4 1 -2.98023e-08
v 0.4 1.1 -2.98023e-08
v 0.4 1.2 -2.98023e-08
v 0.5 0.4 -2.98023e-08
v 0.5 0.5 -2.98023e-08
v -0.4 1 -0.1
v -0.4 1.1 -0.1
v -0.3 1 -0.1
v -0.3 1.1 -0.1
v 0.3 0.7 -0.1
v 0.3 0.8 -0.1
v 0.3 1 -0.1
v 0.3 1.1 -0.1
v 0.4 0.7 -0.1
v 0.4 0.8 -0.1
v 0.4 1 -0.1
v 0.4 1.1 -0.1
v -0.4 0.9 -0.2
v -0.4 1 -0.2
v -0.4 1.1 -0.2
v -0.4 1.2 -0.2
v -0.3 0.9 -0.2
v -0.3 1 -0.2
v -0.3 1.1 -0.2
v -0.3 1.2 -0.2
v 0.3 0.9 -0.2
v 0.3 1 -0.2
v 0.3 1.1 -0.2
v 0.3 1.2 -0.2
v 0.4 0.9 -0.2
v 0.4 1 -0.2
v 0.4 1.1 -0.2
v 0.4 1.2 -0.2
v 0 0.4 -0.3
v 0 0.5 -0.3
v 0.1 0.4 -0.3
v 0.1 0.5 -0.3
v 0 0.5 -0.5
v 0 0.7 -0.5
v 0.1 0.5 -0.5
v 0.1 0.7 -0.5
v -0.4 0.9 0.1
v -0.4 1 0.1
v -0.4 1.1 0.1
v -0.4 1.2 0.1
v -0.3 0.7 0.1
v -0.3 0.8 0.1
v -0.3 0.9 0.1
v -0.3 1 0.1
v -0.3 1.1 0.1
v -0.3 1.2 0.1
v -0.2 0.7 0.1
v -0.2 0.8 0.1
v 0.2 0.7 0.1
v 0.2 0.8 0.1
v 0.3 0.7 0.1
v 0.3 0.8 0.1
v 0.3 0.9 0.1
v 0.3 1 0.1
v 0.3 1.1 0.1
v 0.3 1.2 0.1
v 0.4 0.9 0.1
v 0.4 1 0.1
v 0.4 1.1 0.1
v 0.4 1.2 0.1
v -0.4 1 -2.98023e-08
v -0.4 1.1 -2.98023e-08
v -0.3 1 -2.98023e-08
v -0.3 1.1 -2.98023e-08
v 0.2 0.5 -2.98023e-08
v 0.2 0.6 -2.98023e-08
v 0.3 0.5 -2.98023e-08
v 0.3 0.6 -2.98023e-08
v 0.3 1 -2.98023e-08
v 0.3 1.1 -2.98023e-08
v 0.4 1 -2.98023e-08
v 0.4 1.1 -2.98023e-08
v -1 0.3 -0.1
v -1 0.6 -0.1
v -0.9 0.2 -0.1
v -0.9 0.3 -0.1
v -0.9 0.6 -0.1
v -0.9 0.7 -0.1
v -0.8 0.1 -0.1
v -0.8 0.2 -0.1
v -0.8 0.3 -0.1
v -0.8 0.6 -0.1
v -0.8 0.7 -0.1
v -0.8 0.8 -0.1
v -0.7 0 -0.1
v -0.7 0.1 -0.1
v -0.7 0.2 -0.1
v -0.7 0.7 -0.1
v -0.7 0.8 -0.1
v -0.7 0.9 -0.1
v -0.6 0 -0.1
v -0.6 0.1 -0.1
v -0.6 0.8 -0.1
v -0.6 0.9 -0.1
v -0.5 0 -0.1
v -0.5 0.3 -0.1
v -0.5 0.4 -0.1
v -0.5 0.9 -0.1
v -0.4 0.3 -0.1
v -0.4 0.4 -0.1
v -0.4 0.5 -0.1
v -0.4 0.9 -0.1
v -0.4 1 -0.1
v -0.4 1.1 -0.1
v -0.4 1.2 -0.1
v -0.3 0.4 -0.1
v -0.3 0.5 -0.1
v -0.3 0.6 -0.1
v -0.3 0.9 -0.1
v -0.3 1 -0.1
v -0.3 1.1 -0.1
v -0.3 1.2 -0.1
v -0.2 0 -0.1
v -0.2 0.2 -0.1
v -0.2 0.3 -0.1
v -0.2 0.5 -0.1
v -0.2 0.6 -0.1
v -0.1 0 -0.1
v -0.1 0.2 -0.1
v -0.1 0.3 -0.1
v 0.1 0 -0.1
v 0.1 0.2 -0.1
v 0.1 0.3 -0.1
v 0.2 0 -0.1
v 0.2 0.2 -0.1
v 0.2 0.3 -0.1
v 0.3 0.3 -0.1
v 0.3 0.4 -0.1
v 0.3 0.5 -0.1
v 0.3 0.6 -0.1
v 0.3 0.9 -0.1
v 0.3 1 -0.1
v 0.3 1.1 -0.1
v 0.3 1.2 -0.1
v 0.4 0.3 -0.1
v 0.4 0.4 -0.1
v 0.4 0.5 -0.1
v 0.4 0.6 -0.1
v 0.4 0.9 -0.1
v 0.4 1 -0.1
v 0.4 1.1 -0.1
v 0.4 1.2 -0.1
v 0.5 0.4 -0.1
v 0.5 0.5 -0.1
v -0.4 0.8 -0.2
v -0.4 0.9 -0.2
v -0.4 1.2 -0.2
v -0.4 1.3 -0.2
v -0.3 0.6 -0.2
v -0.3 0.7 -0.2
v -0.3 0.8 -0.2
v -0.3 0.9 -0.2
v -0.3 1.2 -0.2
v -0.3 1.3 -0.2
v -0.2 0.4 -0.2
v -0.2 0.6 -0.2
v -0.2 0.7 -0.2
v -0.2 1.3 -0.2
v -0.2 1.4 -0.2
v -0.1 0.4 -0.2
v -0.1 0.6 -0.2
v 0 0.4 -0.2
v 0 0.6 -0.2
v 0.1 0.4 -0.2
v 0.1 0.6 -0.2
v 0.2 1.3 -0.2
v 0.2 1.4 -0.2
v 0.3 0.7 -0.2
v 0.3 0.8 -0.2
v 0.3 0.9 -0.2
v 0.3 1.2 -0.2
v 0.3 1.3 -0.2
v 0.4 0.7 -0.2
v 0.4 0.8 -0.2
v 0.4 0.9 -0.2
v 0.4 1.2 -0.2
v 0.4 1.3 -0.2
v -0.4 0.9 -0.3
v -0.4 1.2 -0.3
v -0.3 0.3 -0.3
v -0.3 0.4 -0.3
v -0.3 0.7 -0.3
v -0.3 0.8 -0.3
v -0.3 0.9 -0.3
v -0.3 1.2 -0.3
v -0.3 1.3 -0.3
v -0.2 0.3 -0.3
v -0.2 0.4 -0.3
v -0.2 0.6 -0.3
v -0.2 0.7 -0.3
v -0.2 0.8 -0.3
v -0.2 0.9 -0.3
v -0.1 0.3 -0.3
v -0.1 0.4 -0.3
v -0.1 0.6 -0.3
v -0.1 0.7 -0.3
v -0.1 0.8 -0.3
v -0.1 0.9 -0.3
v 0 0.3 -0.3
v 0 0.4 -0.3
v 0 0.6 -0.3
v 0 0.7 -0.3
v 0.1 0.3 -0.3
v 0.1 0.4 -0.3
v 0.1 0.6 -0.3
v 0.1 0.7 -0.3
v 0.1 0.8 -0.3
v 0.1 0.9 -0.3
v 0.2 0.3 -0.3
v 0.2 0.4 -0.3
v 0.2 0.6 -0.3
v 0.2 0.7 -0.3
v 0.2 0.8 -0.3
v 0.2 0.9 -0.3
v 0.3 0.3 -0.3
v 0.3 0.4 -0.3
v 0.3 0.6 -0.3
v 0.3 0.8 -0.3
v 0.3 0.9 -0.3
v 0.3 1.2 -0.3
v 0.3 1.3 -0.3
v 0.4 0.9 -0.3
v 0.4 1.2 -0.3
v -0.3 0.9 -0.4
v -0.3 1.2 -0.4
v -0.2 0.7 -0.4
v -0.2 0.8 -0.4
v -0.2 0.9 -0.4
v -0.2 1.1 -0.4
v -0.1 0.7 -0.4
v -0.1 0.8 -0.4
v 0.2 0.9 -0.4
v 0.2 1.1 -0.4
v 0.3 0.9 -0.4
v 0.3 1.2 -0.4
v -0.2 0.8 -0.5
v -0.2 1.1 -0.5
v -0.1 0.8 -0.5
v -0.1 0.9 -0.5
v 0.1 0.8 -0.5
v 0.1 0.9 -0.5
v 0.2 0.8 -0.5
v 0.2 1.1 -0.5
v -0.1 0.4 -0.6
v -0.1 0.7 -0.6
v 0 0.5 -0.6
v 0 0.7 -0.6
v 0.1 0.5 -0.6
v 0.1 0.7 -0.6
v 0.2 0.4 -0.6
v 0.2 0.7 -0.6
v -0.2 0 0.1
v -0.1 0 0.1
v 0.1 0 0.1
v 0.2 0 0.1
v -0.7 0 -2.98023e-08
v -0.6 0 -2.98023e-08
v -0.5 0 -2.98023e-08
v -0.2 0 -2.98023e-08
v -0.1 0 -2.98023e-08
v 0.1 0 -2.98023e-08
v 0.2 0 -2.98023e-08
v -0.7 0 -0.1
v -0.6 0 -0.1
v -0.5 0 -0.1
v -0.2 0 -0.1
v -0.1 0 -0.1
v 0.1 0 -0.1
v 0.2 0 -0.1
v -0.8 0.1 -2.98023e-08
v -0.7 0.1 -2.98023e-08
v -0.8 0.1 -0.1
v -0.7 0.1 -0.1
v -0.9 0.2 -2.98023e-08
v -0.8 0.2 -2.98023e-08
v -0.9 0.2 -0.1
v -0.8 0.2 -0.1
v -0.3 0.3 0.2
v -0.2 0.3 0.2
v -0.1 0.3 0.2
v 0 0.3 0.2
v 0.1 0.3 0.2
v 0.2 0.3 0.2
v 0.3 0.3 0.2
v -0.3 0.3 0.1
v -0.2 0.3 0.1
v 0.2 0.3 0.1
v 0.3 0.3 0.1
v -1 0.3 -2.98023e-08
v -0.9 0.3 -2.98023e-08
v -0.5 0.3 -2.98023e-08
v -0.4 0.3 -2.98023e-08
v -0.3 0.3 -2.98023e-08
v -0.2 0.3 -2.98023e-08
v -0.1 0.3 -2.98023e-08
v 0.1 0.3 -2.98023e-08
v 0.2 0.3 -2.98023e-08
v 0.3 0.3 -2.98023e-08
v 0.4 0.3 -2.98023e-08
v -1 0.3 -0.1
v -0.9 0.3 -0.1
v -0.5 0.3 -0.1
v -0.4 0.3 -0.1
v -0.3 0.3 -0.1
v -0.2 0.3 -0.1
v -0.1 0.3 -0.1
v 0.1 0.3 -0.1
v 0.2 0.3 -0.1
v 0.3 0.3 -0.1
v 0.4 0.3 -0.1
v -0.3 0.3 -0.2
v -0.2 0.3 -0.2
v 0.2 0.3 -0.2
v 0.3 0.3 -0.2
v -0.3 0.3 -0.3
v -0.2 0.3 -0.3
v -0.1 0.3 -0.3
v 0 0.3 -0.3
v 0.1 0.3 -0.3
v 0.2 0.3 -0.3
v 0.3 0.3 -0.3
v -0.4 0.4 -2.98023e-08
v -0.3 0.4 -2.98023e-08
v 0.4 0.4 -2.98023e-08
v 0.5 0.4 -2.98023e-08
v -0.4 0.4 -0.1
v -0.3 0.4 -0.1
v 0.4 0.4 -0.1
v 0.5 0.4 -0.1
v -0.1 0.4 -0.3
v 0 0.4 -0.3
v 0.1 0.4 -0.3
v 0.2 0.4 -0.3
v 0 0.4 -0.4
v 0.1 0.4 -0.4
v -0.1 0.4 -0.6
v 0.2 0.4 -0.6
v -0.3 0.5 0.1
v -0.2 0.5 0.1
v 0.2 0.5 0.1
v 0.3 0.5 0.1
v -0.3 0.5 -2.98023e-08
v -0.2 0.5 -2.98023e-08
v 0.2 0.5 -2.98023e-08
v 0.3 0.5 -2.98023e-08
v 0.4 0.5 -2.98023e-08
v -0.3 0.5 -0.1
v -0.2 0.5 -0.1
v 0.3 0.5 -0.1
v 0.4 0.5 -0.1
v -0.2 0.6 0.2
v -0.1 0.6 0.2
v 0.1 0.6 0.2
v 0.2 0.6 0.2
v -0.2 0.6 0.1
v -0.1 0.6 0.1
v 0.1 0.6 0.1
v 0.2 0.6 0.1
v -0.9 0.6 -2.98023e-08
v -0.8 0.6 -2.98023e-08
v 0.2 0.6 -2.98023e-08
v 0.3 0.6 -2.98023e-08
v -0.9 0.6 -0.1
v -0.8 0.6 -0.1
v -0.3 0.6 -0.1
v -0.2 0.6 -0.1
v 0.2 0.6 -0.1
v 0.3 0.6 -0.1
v -0.3 0.6 -0.2
v -0.2 0.6 -0.2
v -0.1 0.6 -0.2
v 0 0.6 -0.2
v 0.1 0.6 -0.2
v 0.2 0.6 -0.2
v -0.2 0.6 -0.3
v -0.1 0.6 -0.3
v 0 0.6 -0.3
v 0.1 0.6 -0.3
v 0.2 0.6 -0.3
v 0.3 0.6 -0.3
v -0.3 0.7 0.2
v -0.2 0.7 0.2
v 0.2 0.7 0.2
v 0.3 0.7 0.2
v -0.3 0.7 0.1
v -0.2 0.7 0.1
v 0.2 0.7 0.1
v 0.3 0.7 0.1
v -0.8 0.7 -2.98023e-08
v -0.7 0.7 -2.98023e-08
v -0.8 0.7 -0.1
v -0.7 0.7 -0.1
v 0.3 0.7 -0.1
v 0.4 0.7 -0.1
v -0.3 0.7 -0.2
v -0.2 0.7 -0.2
v 0.3 0.7 -0.2
v 0.4 0.7 -0.2
v -0.3 0.7 -0.3
v -0.2 0.7 -0.3
v -0.1 0.7 -0.3
v -0.2 0.7 -0.4
v -0.1 0.7 -0.4
v -0.4 0.8 0.1
v -0.3 0.8 0.1
v -0.2 0.8 0.1
v 0.2 0.8 0.1
v 0.3 0.8 0.1
v 0.4 0.8 0.1
v -0.7 0.8 -2.98023e-08
v -0.6 0.8 -2.98023e-08
v -0.3 0.8 -2.98023e-08
v -0.2 0.8 -2.98023e-08
v 0.2 0.8 -2.98023e-08
v 0.3 0.8 -2.98023e-08
v -0.7 0.8 -0.1
v -0.6 0.8 -0.1
v 0.3 0.8 -0.1
v 0.4 0.8 -0.1
v -0.4 0.8 -0.2
v -0.3 0.8 -0.2
v 0.1 0.8 -0.3
v 0.2 0.8 -0.3
v -0.2 0.8 -0.4
v -0.1 0.8 -0.4
v -0.2 0.8 -0.5
v -0.1 0.8 -0.5
v 0.1 0.8 -0.5
v 0.2 0.8 -0.5
v -0.4 0.9 0.2
v -0.3 0.9 0.2
v -0.1 0.9 0.2
v 0 0.9 0.2
v 0.3 0.9 0.2
v 0.4 0.9 0.2
v -0.4 0.9 0.1
v -0.3 0.9 0.1
v -0.1 0.9 0.1
v 0 0.9 0.1
v 0.3 0.9 0.1
v 0.4 0.9 0.1
v -0.4 0.9 -0.2
v -0.3 0.9 -0.2
v 0.3 0.9 -0.2
v 0.4 0.9 -0.2
v -0.4 0.9 -0.3
v -0.3 0.9 -0.3
v -0.2 0.9 -0.3
v -0.1 0.9 -0.3
v 0.1 0.9 -0.3
v 0.2 0.9 -0.3
v 0.3 0.9 -0.3
v 0.4 0.9 -0.3
v -0.3 0.9 -0.4
v -0.2 0.9 -0.4
v 0.2 0.9 -0.4
v 0.3 0.9 -0.4
v -0.1 0.9 -0.5
v 0.1 0.9 -0.5
v -0.3 1 0.3
v 0 1 0.3
v 0.3 1 0.3
v -0.3 1 0.2
v -0.2 1 0.2
v -0.1 1 0.2
v 0 1 0.2
v 0.2 1 0.2
v 0.3 1 0.2
v -0.4 1 0.1
v -0.3 1 0.1
v -0.2 1 0.1
v -0.1 1 0.1
v 0 1 0.1
v 0.2 1 0.1
v 0.3 1 0.1
v 0.4 1 0.1
v -0.4 1 -2.98023e-08
v -0.3 1 -2.98023e-08
v 0.3 1 -2.98023e-08
v 0.4 1 -2.98023e-08
v -0.4 1 -0.1
v -0.3 1 -0.1
v 0.3 1 -0.1
v 0.4 1 -0.1
v -0.4 1 -0.2
v -0.3 1 -0.2
v 0.3 1 -0.2
v 0.4 1 -0.2
v -0.4 1.1 -2.98023e-08
v -0.3 1.1 -2.98023e-08
v 0.3 1.1 -2.98023e-08
v 0.4 1.1 -2.98023e-08
v -0.4 1.1 -0.1
v -0.3 1.1 -0.1
v 0.3 1.1 -0.1
v 0.4 1.1 -0.1
v -0.4 1.2 0.1
v -0.3 1.2 0.1
v 0.3 1.2 0.1
v 0.4 1.2 0.1
v -0.4 1.2 -2.98023e-08
v -0.3 1.2 -2.98023e-08
v 0.3 1.2 -2.98023e-08
v 0.4 1.2 -2.98023e-08
v -0.4 1.2 -0.1
v -0.3 1.2 -0.1
v 0.3 1.2 -0.1
v 0.4 1.2 -0.1
v -0.4 1.2 -0.2
v -0.3 1.2 -0.2
v 0.3 1.2 -0.2
v 0.4 1.2 -0.2
v -0.2 0.1 0.1
v -0.1 0.1 0.1
v 0.1 0.1 0.1
v 0.2 0.1 0.1
v -0.7 0.1 -2.98023e-08
v -0.6 0.1 -2.98023e-08
v -0.2 0.1 -2.98023e-08
v -0.1 0.1 -2.98023e-08
v 0.1 0.1 -2.98023e-08
v 0.2 0.1 -2.98023e-08
v -0.7 0.1 -0.1
v -0.6 0.1 -0.1
v -0.8 0.2 -2.98023e-08
v -0.7 0.2 -2.98023e-08
v -0.8 0.2 -0.1
v -0.7 0.2 -0.1
v -0.9 0.3 -2.98023e-08
v -0.8 0.3 -2.98023e-08
v -0.9 0.3 -0.1
v -0.8 0.3 -0.1
v -0.3 0.4 0.2
v -0.2 0.4 0.2
v -0.1 0.4 0.2
v 0 0.4 0.2
v 0.1 0.4 0.2
v 0.2 0.4 0.2
v 0.3 0.4 0.2
v -0.3 0.4 0.1
v -0.2 0.4 0.1
v -0.1 0.4 0.1
v 0 0.4 0.1
v 0.1 0.4 0.1
v 0.2 0.4 0.1
v 0.3 0.4 0.1
v -0.5 0.4 -2.98023e-08
v -0.4 0.4 -2.98023e-08
v -0.3 0.4 -2.98023e-08
v -0.2 0.4 -2.98023e-08
v 0.2 0.4 -2.98023e-08
v 0.3 0.4 -2.98023e-08
v 0.4 0.4 -2.98023e-08
v -0.5 0.4 -0.1
v -0.4 0.4 -0.1
v -0.3 0.4 -0.1
v -0.2 0.4 -0.1
v 0.2 0.4 -0.1
v 0.3 0.4 -0.1
v 0.4 0.4 -0.1
v -0.3 0.4 -0.2
v -0.2 0.4 -0.2
v -0.1 0.4 -0.2
v 0 0.4 -0.2
v 0.1 0.4 -0.2
v 0.2 0.4 -0.2
v 0.3 0.4 -0.2
v -0.3 0.4 -0.3
v -0.2 0.4 -0.3
v -0.1 0.4 -0.3
v 0 0.4 -0.3
v 0.1 0.4 -0.3
v 0.2 0.4 -0.3
v 0.3 0.4 -0.3
v -0.4 0.5 -2.98023e-08
v -0.3 0.5 -2.98023e-08
v 0.4 0.5 -2.98023e-08
v 0.5 0.5 -2.98023e-08
v -0.4 0.5 -0.1
v -0.3 0.5 -0.1
v 0.4 0.5 -0.1
v 0.5 0.5 -0.1
v 0 0.5 -0.3
v 0.1 0.5 -0.3
v 0 0.5 -0.4
v 0.1 0.5 -0.4
v 0 0.5 -0.5
v 0.1 0.5 -0.5
v -1 0.6 -2.98023e-08
v -0.9 0.6 -2.98023e-08
v 0.3 0.6 -2.98023e-08
v 0.4 0.6 -2.98023e-08
v -1 0.6 -0.1
v -0.9 0.6 -0.1
v 0.3 0.6 -0.1
v 0.4 0.6 -0.1
v -0.2 0.7 0.2
v -0.1 0.7 0.2
v 0.1 0.7 0.2
v 0.2 0.7 0.2
v -0.3 0.7 0.1
v -0.2 0.7 0.1
v -0.1 0.7 0.1
v 0.1 0.7 0.1
v 0.2 0.7 0.1
v 0.3 0.7 0.1
v -0.9 0.7 -2.98023e-08
v -0.8 0.7 -2.98023e-08
v -0.3 0.7 -2.98023e-08
v -0.2 0.7 -2.98023e-08
v 0.2 0.7 -2.98023e-08
v 0.3 0.7 -2.98023e-08
v -0.9 0.7 -0.1
v -0.8 0.7 -0.1
v -0.1 0.7 -0.3
v 0 0.7 -0.3
v 0.1 0.7 -0.3
v 0.2 0.7 -0.3
v -0.1 0.7 -0.4
v 0 0.7 -0.5
v 0.1 0.7 -0.5
v -0.1 0.7 -0.6
v 0 0.7 -0.6
v 0.1 0.7 -0.6
v 0.2 0.7 -0.6
v -0.8 0.8 -2.98023e-08
v -0.7 0.8 -2.98023e-08
v -0.8 0.8 -0.1
v -0.7 0.8 -0.1
v -0.4 0.9 0.1
v -0.3 0.9 0.1
v 0.3 0.9 0.1
v 0.4 0.9 0.1
v -0.7 0.9 -2.98023e-08
v -0.6 0.9 -2.98023e-08
v -0.5 0.9 -2.98023e-08
v -0.4 0.9 -2.98023e-08
v -0.3 0.9 -2.98023e-08
v 0.3 0.9 -2.98023e-08
v 0.4 0.9 -2.98023e-08
v -0.7 0.9 -0.1
v -0.6 0.9 -0.1
v -0.5 0.9 -0.1
v -0.4 0.9 -0.1
v -0.3 0.9 -0.1
v 0.3 0.9 -0.1
v 0.4 0.9 -0.1
v -0.4 0.9 -0.2
v -0.3 0.9 -0.2
v 0.3 0.9 -0.2
v 0.4 0.9 -0.2
v -0.4 1 -2.98023e-08
v -0.3 1 -2.98023e-08
v 0.3 1 -2.98023e-08
v 0.4 1 -2.98023e-08
v -0.4 1 -0.1
v -0.3 1 -0.1
v 0.3 1 -0.1
v 0.4 1 -0.1
v -0.4 1.1 0.1
v -0.3 1.1 0.1
v 0.3 1.1 0.1
v 0.4 1.1 0.1
v -0.4 1.1 -2.98023e-08
v -0.3 1.1 -2.98023e-08
v 0.3 1.1 -2.98023e-08
v 0.4 1.1 -2.98023e-08
v -0.4 1.1 -0.1
v -0.3 1.1 -0.1
v 0.3 1.1 -0.1
v 0.4 1.1 -0.1
v -0.4 1.1 -0.2
v -0.3 1.1 -0.2
v 0.3 1.1 -0.2
v 0.4 1.1 -0.2
v -0.2 1.1 -0.4
v 0.2 1.1 -0.4
v -0.2 1.1 -0.5
v 0.2 1.1 -0.5
v -0.3 1.2 0.3
v 0 1.2 0.3
v 0.2 1.2 0.3
v 0.3 1.2 0.3
v -0.4 1.2 0.2
v -0.3 1.2 0.2
v -0.2 1.2 0.2
v 0 1.2 0.2
v 0.2 1.2 0.2
v 0.3 1.2 0.2
v 0.4 1.2 0.2
v -0.4 1.2 0.1
v -0.3 1.2 0.1
v 0.3 1.2 0.1
v 0.4 1.2 0.1
v -0.4 1.2 -0.2
v -0.3 1.2 -0.2
v 0.3 1.2 -0.2
v 0.4 1.2 -0.2
v -0.4 1.2 -0.3
v -0.3 1.2 -0.3
v 0.3 1.2 -0.3
v 0.4 1.2 -0.3
v -0.3 1.2 -0.4
v 0.3 1.2 -0.4
v -0.3 1.3 0.2
v -0.2 1.3 0.2
v 0.3 1.3 0.2
v -0.4 1.3 0.1
v -0.3 1.3 0.1
v -0.2 1.3 0.1
v 0.2 1.3 0.1
v 0.3 1.3 0.1
v 0.4 1.3 0.1
v 0.2 1.3 -0.1
v 0.3 1.3 -0.1
v -0.4 1.3 -0.2
v -0.3 1.3 -0.2
v -0.2 1.3 -0.2
v 0.2 1.3 -0.2
v 0.3 1.3 -0.2
v 0.4 1.3 -0.2
v -0.3 1.3 -0.3
v 0.3 1.3 -0.3
v -0.2 1.4 0.1
v 0.2 1.4 0.1
v -0.2 1.4 -0.2
v 0.2 1.4 -0.2

# faces
f 3/5/1 2/5/1 1/5/1
f 4/5/1 2/5/1 3/5/1
f 7/5/1 6/5/1 5/5/1
f 8/5/1 6/5/1 7/5/1
f 11/5/1 10/5/1 9/5/1
f 12/5/1 10/5/1 11/5/1
f 15/5/1 14/5/1 13/5/1
f 16/5/1 14/5/1 15/5/1
f 19/5/1 18/5/1 17/5/1
f 20/5/1 18/5/1 19/5/1
f 23/5/1 22/5/1 21/5/1
f 24/5/1 22/5/1 23/5/1
f 27/5/1 26/5/1 25/5/1
f 28/5/1 26/5/1 27/5/1
f 31/14/1 30/14/1 29/14/1
f 32/14/1 30/14/1 31/14/1
f 35/1/1 34/1/1 33/1/1
f 36/1/1 34/1/1 35/1/1
f 40/5/1 38/5/1 37/5/1
f 41/5/1 38/5/1 40/5/1
f 42/5/1 38/5/1 41/5/1
f 43/5/1 38/5/1 42/5/1
f 45/5/1 40/5/1 39/5/1
f 46/5/1 42/5/1 41/5/1
f 47/5/1 42/5/1 46/5/1
f 48/5/1 44/5/1 43/5/1
f 49/5/1 45/5/1 39/5/1
f 49/5/1 46/5/1 45/5/1
f 50/5/1 46/5/1 49/5/1
f 51/5/1 48/5/1 47/5/1
f 52/5/1 44/5/1 48/5/1
f 52/5/1 48/5/1 51/5/1
f 53/5/1 49/5/1 39/5/1
f 54/5/1 49/5/1 53/5/1
f 55/5/1 51/5/1 50/5/1
f 56/5/1 51/5/1 55/5/1
f 57/5/1 44/5/1 52/5/1
f 58/5/1 44/5/1 57/5/1
f 59/5/1 56/5/1 55/5/1
f 59/5/1 57/5/1 56/5/1
f 59/5/1 55/5/1 54/5/1
f 60/5/1 57/5/1 59/5/1
f 67/10/1 62/10/1 61/10/1
f 68/7/1 63/7/1 62/7/1
f 68/10/1 62/10/1 67/10/1
f 69/10/1 64/10/1 63/10/1
f 69/7/1 63/7/1 68/7/1
f 70/7/1 65/7/1 64/7/1
f 70/10/1 64/10/1 69/10/1
f 71/10/1 66/10/1 65/10/1
f 71/7/1 65/7/1 70/7/1
f 72/10/1 66/10/1 71/10/1
f 76/11/1 74/11/1 73/11/1
f 76/1/1 75/1/1 74/1/1
f 77/1/1 75/1/1 76/1/1
f 80/11/1 76/11/1 73/11/1
f 81/10/1 77/10/1 76/10/1
f 81/11/1 76/11/1 80/11/1
f 82/11/1 78/11/1 77/11/1
f 82/10/1 77/10/1 81/10/1
f 83/11/1 78/11/1 82/11/1
f 85/11/1 80/11/1 79/11/1
f 86/11/1 84/11/1 83/11/1
f 86/11/1 83/11/1 82/11/1
f 86/11/1 82/11/1 81/11/1
f 87/11/1 84/11/1 86/11/1
f 88/11/1 84/11/1 87/11/1
f 89/11/1 85/11/1 79/11/1
f 90/11/1 85/11/1 89/11/1
f 93/17/1 88/17/1 87/17/1
f 94/17/1 88/17/1 93/17/1
f 98/11/1 91/11/1 90/11/1
f 99/11/1 91/11/1 98/11/1
f 100/11/1 93/11/1 92/11/1
f 101/11/1 93/11/1 100/11/1
f 103/17/1 100/17/1 99/17/1
f 104/17/1 100/17/1 103/17/1
f 106/16/1 97/16/1 96/16/1
f 107/16/1 97/16/1 106/16/1
f 108/17/1 103/17/1 102/17/1
f 109/17/1 103/17/1 108/17/1
f 110/18/1 105/18/1 104/18/1
f 111/18/1 105/18/1 110/18/1
f 112/18/1 95/18/1 94/18/1
f 113/18/1 95/18/1 112/18/1
f 114/18/1 108/18/1 107/18/1
f 115/18/1 108/18/1 114/18/1
f 116/18/1 112/18/1 111/18/1
f 117/18/1 112/18/1 116/18/1
f 121/5/1 119/5/1 118/5/1
f 122/4/1 120/4/1 119/4/1
f 122/5/1 119/5/1 121/5/1
f 123/4/1 120/4/1 122/4/1
f 124/4/1 120/4/1 123/4/1
f 125/1/1 124/1/1 123/1/1
f 126/1/1 124/1/1 125/1/1
f 131/7/1 128/7/1 127/7/1
f 132/10/1 129/10/1 128/10/1
f 132/7/1 128/7/1 131/7/1
f 133/7/1 130/7/1 129/7/1
f 133/10/1 129/10/1 132/10/1
f 136/7/1 130/7/1 133/7/1
f 137/7/1 130/7/1 136/7/1
f 139/11/1 135/11/1 134/11/1
f 140/11/1 135/11/1 139/11/1
f 142/11/1 138/11/1 137/11/1
f 143/11/1 138/11/1 142/11/1
f 145/1/1 141/1/1 140/1/1
f 146/1/1 141/1/1 145/1/1
f 147/11/1 144/11/1 143/11/1
f 148/11/1 144/11/1 147/11/1
f 150/18/1 149/18/1 148/18/1
f 150/18/1 148/18/1 147/18/1
f 151/18/1 149/18/1 150/18/1
f 152/18/1 149/18/1 151/18/1
f 153/18/1 149/18/1 152/18/1
f 156/19/1 155/19/1 154/19/1
f 157/19/1 155/19/1 156/19/1
f 161/12/1 159/12/1 158/12/1
f 162/6/1 160/6/1 159/6/1
f 162/12/1 159/12/1 161/12/1
f 163/6/1 160/6/1 162/6/1
f 164/6/1 160/6/1 163/6/1
f 165/6/1 160/6/1 164/6/1
f 168/11/1 167/11/1 166/11/1
f 169/11/1 167/11/1 168/11/1
f 173/5/1 171/5/1 170/5/1
f 174/4/1 172/4/1 171/4/1
f 174/5/1 171/5/1 173/5/1
f 175/4/1 172/4/1 174/4/1
f 176/4/1 172/4/1 175/4/1
f 177/1/1 176/1/1 175/1/1
f 178/1/1 176/1/1 177/1/1
f 181/12/1 180/12/1 179/12/1
f 186/12/1 181/12/1 179/12/1
f 187/6/1 182/6/1 181/6/1
f 187/12/1 181/12/1 186/12/1
f 187/6/1 183/6/1 182/6/1
f 188/11/1 185/11/1 184/11/1
f 189/11/1 185/11/1 188/11/1
f 190/6/1 183/6/1 187/6/1
f 191/6/1 183/6/1 190/6/1
f 194/18/1 193/18/1 192/18/1
f 195/18/1 193/18/1 194/18/1
f 198/11/1 197/11/1 196/11/1
f 199/11/1 198/11/1 196/11/1
f 200/11/1 199/11/1 196/11/1
f 201/11/1 199/11/1 200/11/1
f 204/1/1 203/1/1 202/1/1
f 205/1/1 203/1/1 204/1/1
f 208/1/1 207/1/1 206/1/1
f 209/1/1 207/1/1 208/1/1
f 210/5/2 211/5/2 212/5/2
f 212/5/2 211/5/2 213/5/2
f 214/5/2 215/5/2 216/5/2
f 216/5/2 215/5/2 217/5/2
f 218/5/2 219/5/2 220/5/2
f 220/5/2 219/5/2 221/5/2
f 222/5/2 223/5/2 224/5/2
f 224/5/2 223/5/2 225/5/2
f 226/5/2 227/5/2 228/5/2
f 228/5/2 227/5/2 229/5/2
f 230/14/2 231/14/2 232/14/2
f 232/14/2 231/14/2 233/14/2
f 234/14/2 235/14/2 236/14/2
f 236/14/2 235/14/2 237/14/2
f 238/1/2 239/1/2 240/1/2
f 240/1/2 239/1/2 241/1/2
f 242/1/2 243/1/2 244/1/2
f 244/1/2 243/1/2 245/1/2
f 246/11/2 247/11/2 248/11/2
f 246/11/2 248/11/2 249/11/2
f 246/11/2 249/11/2 250/11/2
f 250/11/2 249/11/2 251/11/2
f 252/5/2 253/5/2 255/5/2
f 253/4/2 254/4/2 256/4/2
f 255/5/2 253/5/2 256/5/2
f 256/4/2 254/4/2 257/4/2
f 257/4/2 254/4/2 258/4/2
f 257/1/2 258/1/2 259/1/2
f 259/1/2 258/1/2 260/1/2
f 261/11/2 262/11/2 263/11/2
f 263/11/2 262/11/2 264/11/2
f 265/11/2 266/11/2 267/11/2
f 267/11/2 266/11/2 268/11/2
f 267/18/2 268/18/2 270/18/2
f 268/18/2 269/18/2 270/18/2
f 270/18/2 269/18/2 271/18/2
f 272/12/2 273/12/2 274/12/2
f 272/12/2 274/12/2 277/12/2
f 275/6/2 276/6/2 278/6/2
f 277/12/2 274/12/2 278/12/2
f 274/6/2 275/6/2 278/6/2
f 278/6/2 276/6/2 279/6/2
f 279/6/2 276/6/2 280/6/2
f 281/11/2 282/11/2 283/11/2
f 283/11/2 282/11/2 284/11/2
f 285/5/2 286/5/2 288/5/2
f 286/4/2 287/4/2 289/4/2
f 288/5/2 286/5/2 289/5/2
f 289/4/2 287/4/2 290/4/2
f 290/4/2 287/4/2 291/4/2
f 290/1/2 291/1/2 292/1/2
f 292/1/2 291/1/2 293/1/2
f 294/10/2 295/10/2 300/10/2
f 295/7/2 296/7/2 301/7/2
f 300/10/2 295/10/2 301/10/2
f 296/10/2 297/10/2 302/10/2
f 301/7/2 296/7/2 302/7/2
f 297/12/2 298/12/2 303/12/2
f 302/10/2 297/10/2 303/10/2
f 301/9/2 302/9/2 306/9/2
f 302/9/2 303/9/2 306/9/2
f 306/9/2 303/9/2 307/9/2
f 303/12/2 298/12/2 308/12/2
f 307/9/2 303/9/2 308/9/2
f 298/6/2 299/6/2 309/6/2
f 308/12/2 298/12/2 309/12/2
f 304/11/2 305/11/2 310/11/2
f 310/11/2 305/11/2 311/11/2
f 309/6/2 299/6/2 313/6/2
f 313/6/2 299/6/2 314/6/2
f 311/1/2 312/1/2 315/1/2
f 315/1/2 312/1/2 316/1/2
f 317/18/2 318/18/2 319/18/2
f 319/18/2 318/18/2 320/18/2
f 320/18/2 318/18/2 321/18/2
f 321/18/2 318/18/2 322/18/2
f 323/19/2 324/19/2 326/19/2
f 324/19/2 325/19/2 326/19/2
f 326/19/2 325/19/2 327/19/2
f 328/7/2 329/7/2 334/7/2
f 329/10/2 330/10/2 335/10/2
f 334/7/2 329/7/2 335/7/2
f 335/10/2 330/10/2 336/10/2
f 331/10/2 332/10/2 337/10/2
f 332/7/2 333/7/2 338/7/2
f 337/10/2 332/10/2 338/10/2
f 338/7/2 333/7/2 339/7/2
f 340/11/2 341/11/2 342/11/2
f 340/11/2 342/11/2 346/11/2
f 342/10/2 343/10/2 347/10/2
f 346/11/2 342/11/2 347/11/2
f 343/11/2 344/11/2 348/11/2
f 347/10/2 343/10/2 348/10/2
f 348/11/2 344/11/2 349/11/2
f 345/11/2 346/11/2 350/11/2
f 347/11/2 348/11/2 351/11/2
f 351/11/2 348/11/2 352/11/2
f 349/11/2 344/11/2 353/11/2
f 353/11/2 344/11/2 354/11/2
f 345/11/2 350/11/2 355/11/2
f 355/11/2 350/11/2 356/11/2
f 353/17/2 354/17/2 359/17/2
f 359/17/2 354/17/2 360/17/2
f 356/11/2 357/11/2 364/11/2
f 364/11/2 357/11/2 365/11/2
f 358/11/2 359/11/2 366/11/2
f 366/11/2 359/11/2 367/11/2
f 362/15/2 363/15/2 368/15/2
f 368/15/2 363/15/2 369/15/2
f 365/17/2 366/17/2 371/17/2
f 371/17/2 366/17/2 372/17/2
f 368/14/2 369/14/2 374/14/2
f 374/14/2 369/14/2 375/14/2
f 370/17/2 371/17/2 376/17/2
f 376/17/2 371/17/2 377/17/2
f 372/17/2 373/17/2 378/17/2
f 378/17/2 373/17/2 379/17/2
f 360/18/2 361/18/2 380/18/2
f 380/18/2 361/18/2 381/18/2
f 375/17/2 376/17/2 382/17/2
f 382/17/2 376/17/2 383/17/2
f 379/18/2 380/18/2 384/18/2
f 384/18/2 380/18/2 385/18/2
f 386/1/2 387/1/2 388/1/2
f 388/1/2 387/1/2 389/1/2
f 390/1/2 391/1/2 392/1/2
f 392/1/2 391/1/2 393/1/2
f 394/11/2 395/11/2 397/11/2
f 397/11/2 395/11/2 398/11/2
f 396/5/2 397/5/2 400/5/2
f 397/5/2 398/5/2 400/5/2
f 400/5/2 398/5/2 401/5/2
f 401/5/2 398/5/2 402/5/2
f 402/5/2 398/5/2 403/5/2
f 399/17/2 400/17/2 405/17/2
f 401/5/2 402/5/2 406/5/2
f 406/5/2 402/5/2 407/5/2
f 403/5/2 404/5/2 408/5/2
f 399/17/2 405/17/2 409/17/2
f 405/5/2 406/5/2 409/5/2
f 409/5/2 406/5/2 410/5/2
f 407/5/2 408/5/2 411/5/2
f 408/5/2 404/5/2 412/5/2
f 411/5/2 408/5/2 412/5/2
f 399/17/2 409/17/2 413/17/2
f 413/17/2 409/17/2 414/17/2
f 410/5/2 411/5/2 415/5/2
f 415/5/2 411/5/2 416/5/2
f 412/5/2 404/5/2 417/5/2
f 417/5/2 404/5/2 418/5/2
f 415/5/2 416/5/2 419/5/2
f 416/5/2 417/5/2 419/5/2
f 414/5/2 415/5/2 419/5/2
f 419/5/2 417/5/2 420/5/2
f 421/1/2 422/1/2 423/1/2
f 423/1/2 422/1/2 424/1/2
f 427/16/3 426/16/3 425/16/3
f 428/16/3 426/16/3 427/16/3
f 429/15/3 428/15/3 427/15/3
f 430/15/3 428/15/3 429/15/3
f 431/15/3 429/15/3 427/15/3
f 432/14/3 430/14/3 429/14/3
f 432/15/3 429/15/3 431/15/3
f 433/14/3 430/14/3 432/14/3
f 439/5/3 435/5/3 434/5/3
f 440/5/3 435/5/3 439/5/3
f 441/5/3 435/5/3 440/5/3
f 443/10/3 437/10/3 436/10/3
f 444/10/3 437/10/3 443/10/3
f 446/11/3 439/11/3 438/11/3
f 446/11/3 440/11/3 439/11/3
f 447/11/3 440/11/3 446/11/3
f 448/18/3 442/18/3 441/18/3
f 449/18/3 442/18/3 448/18/3
f 450/7/3 444/7/3 443/7/3
f 451/7/3 444/7/3 450/7/3
f 452/11/3 446/11/3 445/11/3
f 453/11/3 446/11/3 452/11/3
f 456/10/3 451/10/3 450/10/3
f 457/10/3 451/10/3 456/10/3
f 458/11/3 455/11/3 454/11/3
f 459/11/3 455/11/3 458/11/3
f 460/17/3 449/17/3 448/17/3
f 461/7/3 457/7/3 456/7/3
f 462/7/3 457/7/3 461/7/3
f 465/10/3 462/10/3 461/10/3
f 466/10/3 462/10/3 465/10/3
f 467/11/3 464/11/3 463/11/3
f 468/11/3 464/11/3 467/11/3
f 470/17/3 449/17/3 460/17/3
f 471/7/3 466/7/3 465/7/3
f 472/7/3 466/7/3 471/7/3
f 473/11/3 469/11/3 468/11/3
f 474/11/3 469/11/3 473/11/3
f 475/11/3 469/11/3 474/11/3
f 477/17/3 449/17/3 470/17/3
f 478/17/3 449/17/3 477/17/3
f 479/17/3 476/17/3 475/17/3
f 479/17/3 477/17/3 476/17/3
f 479/17/3 475/17/3 474/17/3
f 480/17/3 477/17/3 479/17/3
f 487/5/3 482/5/3 481/5/3
f 488/5/3 482/5/3 487/5/3
f 489/5/3 484/5/3 483/5/3
f 490/5/3 484/5/3 489/5/3
f 494/11/3 486/11/3 485/11/3
f 495/11/3 486/11/3 494/11/3
f 496/11/3 486/11/3 495/11/3
f 502/5/3 492/5/3 491/5/3
f 503/5/3 492/5/3 502/5/3
f 504/7/3 494/7/3 493/7/3
f 504/7/3 495/7/3 494/7/3
f 505/7/3 495/7/3 504/7/3
f 506/1/3 497/1/3 496/1/3
f 507/20/3 498/20/3 497/20/3
f 507/1/3 497/1/3 506/1/3
f 508/11/3 499/11/3 498/11/3
f 508/20/3 498/20/3 507/20/3
f 509/11/3 499/11/3 508/11/3
f 510/10/3 505/10/3 504/10/3
f 511/8/3 506/8/3 505/8/3
f 511/10/3 505/10/3 510/10/3
f 512/2/3 507/2/3 506/2/3
f 512/8/3 506/8/3 511/8/3
f 513/1/3 508/1/3 507/1/3
f 513/2/3 507/2/3 512/2/3
f 514/1/3 508/1/3 513/1/3
f 518/7/3 511/7/3 510/7/3
f 518/7/3 512/7/3 511/7/3
f 519/7/3 512/7/3 518/7/3
f 520/7/3 512/7/3 519/7/3
f 521/1/3 513/1/3 512/1/3
f 521/7/3 512/7/3 520/7/3
f 521/1/3 514/1/3 513/1/3
f 522/1/3 514/1/3 521/1/3
f 523/11/3 515/11/3 514/11/3
f 523/1/3 514/1/3 522/1/3
f 524/5/3 517/5/3 516/5/3
f 525/5/3 517/5/3 524/5/3
f 526/10/3 519/10/3 518/10/3
f 527/7/3 520/7/3 519/7/3
f 527/10/3 519/10/3 526/10/3
f 528/7/3 520/7/3 527/7/3
f 529/1/3 522/1/3 521/1/3
f 530/20/3 523/20/3 522/20/3
f 530/1/3 522/1/3 529/1/3
f 531/11/3 515/11/3 523/11/3
f 531/20/3 523/20/3 530/20/3
f 532/11/3 515/11/3 531/11/3
f 533/19/3 501/19/3 500/19/3
f 534/19/3 501/19/3 533/19/3
f 535/11/3 528/11/3 527/11/3
f 535/11/3 529/11/3 528/11/3
f 536/11/3 529/11/3 535/11/3
f 541/5/3 538/5/3 537/5/3
f 542/5/3 538/5/3 541/5/3
f 543/5/3 540/5/3 539/5/3
f 544/5/3 540/5/3 543/5/3
f 548/5/3 546/5/3 545/5/3
f 549/5/3 546/5/3 548/5/3
f 552/5/3 548/5/3 547/5/3
f 553/5/3 548/5/3 552/5/3
f 554/5/3 550/5/3 549/5/3
f 555/5/3 550/5/3 554/5/3
f 558/5/3 552/5/3 551/5/3
f 559/5/3 552/5/3 558/5/3
f 560/5/3 556/5/3 555/5/3
f 561/5/3 556/5/3 560/5/3
f 563/5/3 558/5/3 557/5/3
f 564/5/3 558/5/3 563/5/3
f 565/5/3 562/5/3 561/5/3
f 566/5/3 562/5/3 565/5/3
f 567/14/3 564/14/3 563/14/3
f 567/14/3 565/14/3 564/14/3
f 567/14/3 566/14/3 565/14/3
f 568/14/3 566/14/3 567/14/3
f 569/14/3 566/14/3 568/14/3
f 570/14/3 566/14/3 569/14/3
f 571/1/3 569/1/3 568/1/3
f 572/1/3 569/1/3 571/1/3
f 578/1/3 573/1/3 572/1/3
f 579/1/3 573/1/3 578/1/3
f 582/5/3 575/5/3 574/5/3
f 583/5/3 575/5/3 582/5/3
f 584/5/3 577/5/3 576/5/3
f 585/5/3 577/5/3 584/5/3
f 589/11/3 581/11/3 580/11/3
f 590/11/3 581/11/3 589/11/3
f 591/4/3 587/4/3 586/4/3
f 592/1/3 588/1/3 587/1/3
f 592/4/3 587/4/3 591/4/3
f 593/1/3 588/1/3 592/1/3
f 597/4/3 595/4/3 594/4/3
f 598/1/3 596/1/3 595/1/3
f 598/4/3 595/4/3 597/4/3
f 599/1/3 596/1/3 598/1/3
f 606/11/3 601/11/3 600/11/3
f 607/11/3 601/11/3 606/11/3
f 612/1/3 603/1/3 602/1/3
f 613/1/3 603/1/3 612/1/3
f 614/1/3 605/1/3 604/1/3
f 615/1/3 605/1/3 614/1/3
f 616/5/3 609/5/3 608/5/3
f 617/5/3 609/5/3 616/5/3
f 618/5/3 611/5/3 610/5/3
f 619/5/3 611/5/3 618/5/3
f 620/1/3 614/1/3 613/1/3
f 621/1/3 614/1/3 620/1/3
f 624/5/3 623/5/3 622/5/3
f 625/5/3 623/5/3 624/5/3
f 630/11/3 627/11/3 626/11/3
f 631/11/3 627/11/3 630/11/3
f 632/5/3 629/5/3 628/5/3
f 633/5/3 629/5/3 632/5/3
f 638/5/3 635/5/3 634/5/3
f 639/5/3 635/5/3 638/5/3
f 640/5/3 637/5/3 636/5/3
f 641/5/3 637/5/3 640/5/3
f 646/5/3 643/5/3 642/5/3
f 647/5/3 643/5/3 646/5/3
f 648/5/3 645/5/3 644/5/3
f 649/5/3 645/5/3 648/5/3
f 652/13/3 651/13/3 650/13/3
f 653/13/3 651/13/3 652/13/3
f 656/12/3 655/12/3 654/12/3
f 657/12/3 655/12/3 656/12/3
f 658/5/4 659/5/4 664/5/4
f 664/5/4 659/5/4 665/5/4
f 660/5/4 661/5/4 666/5/4
f 666/5/4 661/5/4 667/5/4
f 662/11/4 663/11/4 668/11/4
f 668/11/4 663/11/4 669/11/4
f 670/11/4 671/11/4 672/11/4
f 672/11/4 671/11/4 673/11/4
f 674/17/4 675/17/4 678/17/4
f 678/17/4 675/17/4 679/17/4
f 676/17/4 677/17/4 680/17/4
f 680/17/4 677/17/4 681/17/4
f 682/5/4 683/5/4 684/5/4
f 684/5/4 683/5/4 685/5/4
f 686/11/4 687/11/4 688/11/4
f 688/11/4 687/11/4 689/11/4
f 690/5/4 691/5/4 692/5/4
f 692/5/4 691/5/4 693/5/4
f 694/5/4 695/5/4 697/5/4
f 697/5/4 695/5/4 698/5/4
f 696/5/4 697/5/4 701/5/4
f 701/5/4 697/5/4 702/5/4
f 698/5/4 699/5/4 703/5/4
f 703/5/4 699/5/4 704/5/4
f 700/5/4 701/5/4 707/5/4
f 707/5/4 701/5/4 708/5/4
f 704/5/4 705/5/4 709/5/4
f 709/5/4 705/5/4 710/5/4
f 706/5/4 707/5/4 712/5/4
f 712/5/4 707/5/4 713/5/4
f 710/5/4 711/5/4 714/5/4
f 714/5/4 711/5/4 715/5/4
f 712/14/4 713/14/4 716/14/4
f 713/14/4 714/14/4 716/14/4
f 714/14/4 715/14/4 716/14/4
f 716/14/4 715/14/4 717/14/4
f 717/14/4 715/14/4 718/14/4
f 718/14/4 715/14/4 719/14/4
f 717/1/4 718/1/4 720/1/4
f 720/1/4 718/1/4 721/1/4
f 721/1/4 722/1/4 727/1/4
f 727/1/4 722/1/4 728/1/4
f 723/5/4 724/5/4 730/5/4
f 730/5/4 724/5/4 731/5/4
f 725/5/4 726/5/4 732/5/4
f 732/5/4 726/5/4 733/5/4
f 728/1/4 729/1/4 737/1/4
f 737/1/4 729/1/4 738/1/4
f 734/4/4 735/4/4 739/4/4
f 735/1/4 736/1/4 740/1/4
f 739/4/4 735/4/4 740/4/4
f 740/1/4 736/1/4 741/1/4
f 742/4/4 743/4/4 745/4/4
f 743/1/4 744/1/4 746/1/4
f 745/4/4 743/4/4 746/4/4
f 746/1/4 744/1/4 747/1/4
f 748/1/4 749/1/4 756/1/4
f 756/1/4 749/1/4 757/1/4
f 750/1/4 751/1/4 758/1/4
f 758/1/4 751/1/4 759/1/4
f 752/5/4 753/5/4 760/5/4
f 760/5/4 753/5/4 761/5/4
f 754/5/4 755/5/4 762/5/4
f 762/5/4 755/5/4 763/5/4
f 757/1/4 758/1/4 764/1/4
f 764/1/4 758/1/4 765/1/4
f 766/5/4 767/5/4 772/5/4
f 772/5/4 767/5/4 773/5/4
f 768/5/4 769/5/4 774/5/4
f 774/5/4 769/5/4 775/5/4
f 770/11/4 771/11/4 777/11/4
f 777/11/4 771/11/4 778/11/4
f 776/7/4 777/7/4 781/7/4
f 781/7/4 777/7/4 782/7/4
f 783/7/4 784/7/4 785/7/4
f 785/7/4 784/7/4 786/7/4
f 779/19/4 780/19/4 787/19/4
f 787/19/4 780/19/4 788/19/4
f 789/11/4 790/11/4 794/11/4
f 790/5/4 791/5/4 795/5/4
f 794/11/4 790/11/4 795/11/4
f 795/5/4 791/5/4 796/5/4
f 792/5/4 793/5/4 797/5/4
f 797/5/4 793/5/4 798/5/4
f 799/5/4 800/5/4 805/5/4
f 805/5/4 800/5/4 806/5/4
f 801/10/4 802/10/4 808/10/4
f 808/10/4 802/10/4 809/10/4
f 803/11/4 804/11/4 811/11/4
f 804/17/4 805/17/4 812/17/4
f 811/11/4 804/11/4 812/11/4
f 812/17/4 805/17/4 813/17/4
f 808/7/4 809/7/4 814/7/4
f 814/7/4 809/7/4 815/7/4
f 810/11/4 811/11/4 816/11/4
f 816/11/4 811/11/4 817/11/4
f 814/10/4 815/10/4 820/10/4
f 820/10/4 815/10/4 821/10/4
f 817/11/4 818/11/4 823/11/4
f 820/7/4 821/7/4 824/7/4
f 824/7/4 821/7/4 825/7/4
f 822/11/4 823/11/4 826/11/4
f 823/11/4 818/11/4 827/11/4
f 826/11/4 823/11/4 827/11/4
f 818/18/4 819/18/4 828/18/4
f 827/11/4 818/11/4 828/11/4
f 828/18/4 819/18/4 829/18/4
f 824/10/4 825/10/4 830/10/4
f 830/10/4 825/10/4 831/10/4
f 827/11/4 828/11/4 833/11/4
f 833/11/4 828/11/4 834/11/4
f 830/7/4 831/7/4 836/7/4
f 836/7/4 831/7/4 837/7/4
f 832/11/4 833/11/4 838/11/4
f 833/11/4 834/11/4 838/11/4
f 834/17/4 835/17/4 839/17/4
f 838/11/4 834/11/4 839/11/4
f 839/17/4 835/17/4 840/17/4
f 806/18/4 807/18/4 841/18/4
f 841/18/4 807/18/4 842/18/4
f 840/5/4 841/5/4 843/5/4
f 843/5/4 841/5/4 844/5/4
f 845/18/4 846/18/4 849/18/4
f 849/18/4 846/18/4 850/18/4
f 847/11/4 848/11/4 851/11/4
f 851/11/4 848/11/4 852/11/4
f 850/18/4 846/18/4 854/18/4
f 853/18/4 854/18/4 855/18/4
f 854/18/4 846/18/4 856/18/4
f 855/18/4 854/18/4 856/18/4
f 857/18/4 858/18/4 859/18/4
f 859/18/4 858/18/4 860/18/4
f 860/18/4 858/18/4 862/18/4
f 861/18/4 862/18/4 863/18/4
f 862/18/4 858/18/4 864/18/4
f 863/18/4 862/18/4 864/18/4
f 865/6/4 866/6/4 867/6/4
f 867/6/4 866/6/4 868/6/4
f 865/6/4 867/6/4 869/6/4
f 867/12/4 868/12/4 869/12/4
f 869/12/4 868/12/4 870/12/4
f 865/6/4 869/6/4 871/6/4
f 869/6/4 870/6/4 871/6/4
f 871/6/4 870/6/4 872/6/4
f 880/5/5 874/5/5 873/5/5
f 881/5/5 874/5/5 880/5/5
f 882/5/5 876/5/5 875/5/5
f 883/5/5 876/5/5 882/5/5
f 884/5/5 878/5/5 877/5/5
f 885/14/5 879/14/5 878/14/5
f 885/5/5 878/5/5 884/5/5
f 886/14/5 879/14/5 885/14/5
f 887/4/5 881/4/5 880/4/5
f 888/4/5 881/4/5 887/4/5
f 889/4/5 883/4/5 882/4/5
f 890/4/5 883/4/5 889/4/5
f 893/5/5 892/5/5 891/5/5
f 894/5/5 892/5/5 893/5/5
f 897/5/5 896/5/5 895/5/5
f 898/5/5 896/5/5 897/5/5
f 906/10/5 900/10/5 899/10/5
f 907/7/5 901/7/5 900/7/5
f 907/10/5 900/10/5 906/10/5
f 908/7/5 905/7/5 904/7/5
f 908/10/5 904/10/5 903/10/5
f 909/7/5 905/7/5 908/7/5
f 914/7/5 907/7/5 906/7/5
f 915/7/5 901/7/5 907/7/5
f 915/7/5 907/7/5 914/7/5
f 916/10/5 902/10/5 901/10/5
f 916/7/5 901/7/5 915/7/5
f 917/7/5 903/7/5 902/7/5
f 917/10/5 908/10/5 903/10/5
f 917/10/5 909/10/5 908/10/5
f 918/10/5 909/10/5 917/10/5
f 919/10/5 909/10/5 918/10/5
f 921/5/5 911/5/5 910/5/5
f 922/5/5 911/5/5 921/5/5
f 923/1/5 913/1/5 912/1/5
f 924/1/5 913/1/5 923/1/5
f 925/10/5 915/10/5 914/10/5
f 926/10/5 915/10/5 925/10/5
f 927/10/5 902/10/5 916/10/5
f 928/7/5 917/7/5 902/7/5
f 929/7/5 919/7/5 918/7/5
f 930/1/5 920/1/5 919/1/5
f 930/7/5 919/7/5 929/7/5
f 931/1/5 920/1/5 930/1/5
f 932/7/5 926/7/5 925/7/5
f 932/7/5 927/7/5 926/7/5
f 933/7/5 927/7/5 932/7/5
f 934/10/5 930/10/5 929/10/5
f 934/10/5 929/10/5 928/10/5
f 935/10/5 930/10/5 934/10/5
f 936/10/5 933/10/5 932/10/5
f 937/7/5 927/7/5 933/7/5
f 937/10/5 933/10/5 936/10/5
f 938/10/5 902/10/5 927/10/5
f 938/7/5 927/7/5 937/7/5
f 939/7/5 928/7/5 902/7/5
f 939/10/5 902/10/5 938/10/5
f 940/10/5 934/10/5 928/10/5
f 940/7/5 928/7/5 939/7/5
f 941/7/5 935/7/5 934/7/5
f 941/10/5 934/10/5 940/10/5
f 942/7/5 935/7/5 941/7/5
f 947/1/5 944/1/5 943/1/5
f 948/1/5 944/1/5 947/1/5
f 949/1/5 946/1/5 945/1/5
f 950/1/5 946/1/5 949/1/5
f 955/6/5 952/6/5 951/6/5
f 955/13/5 953/13/5 952/13/5
f 956/6/5 954/6/5 953/6/5
f 956/13/5 953/13/5 955/13/5
f 957/6/5 955/6/5 951/6/5
f 957/6/5 956/6/5 955/6/5
f 958/6/5 954/6/5 956/6/5
f 958/6/5 956/6/5 957/6/5
f 963/11/5 960/11/5 959/11/5
f 964/11/5 960/11/5 963/11/5
f 965/11/5 962/11/5 961/11/5
f 966/11/5 962/11/5 965/11/5
f 968/1/5 964/1/5 963/1/5
f 969/1/5 964/1/5 968/1/5
f 970/1/5 967/1/5 966/1/5
f 971/1/5 967/1/5 970/1/5
f 976/11/5 973/11/5 972/11/5
f 977/11/5 973/11/5 976/11/5
f 978/11/5 975/11/5 974/11/5
f 979/11/5 975/11/5 978/11/5
f 984/5/5 981/5/5 980/5/5
f 985/5/5 981/5/5 984/5/5
f 988/10/5 983/10/5 982/10/5
f 989/10/5 983/10/5 988/10/5
f 990/11/5 987/11/5 986/11/5
f 991/11/5 987/11/5 990/11/5
f 995/11/5 989/11/5 988/11/5
f 996/11/5 992/11/5 991/11/5
f 997/11/5 992/11/5 996/11/5
f 998/11/5 994/11/5 993/11/5
f 999/11/5 994/11/5 998/11/5
f 1000/11/5 989/11/5 995/11/5
f 1001/11/5 989/11/5 1000/11/5
f 1006/11/5 1003/11/5 1002/11/5
f 1007/11/5 1003/11/5 1006/11/5
f 1008/11/5 1005/11/5 1004/11/5
f 1009/11/5 1005/11/5 1008/11/5
f 1012/5/5 1011/5/5 1010/5/5
f 1013/5/5 1011/5/5 1012/5/5
f 1018/11/5 1015/11/5 1014/11/5
f 1019/11/5 1015/11/5 1018/11/5
f 1020/11/5 1017/11/5 1016/11/5
f 1021/11/5 1017/11/5 1020/11/5
f 1023/11/5 1022/11/5 1021/11/5
f 1024/11/5 1022/11/5 1023/11/5
f 1033/5/5 1026/5/5 1025/5/5
f 1033/11/5 1027/11/5 1026/11/5
f 1034/11/5 1027/11/5 1033/11/5
f 1035/11/5 1029/11/5 1028/11/5
f 1036/5/5 1030/5/5 1029/5/5
f 1036/11/5 1029/11/5 1035/11/5
f 1037/5/5 1032/5/5 1031/5/5
f 1038/5/5 1032/5/5 1037/5/5
f 1039/5/5 1030/5/5 1036/5/5
f 1040/5/5 1030/5/5 1039/5/5
f 1041/5/5 1033/5/5 1025/5/5
f 1042/5/5 1033/5/5 1041/5/5
f 1047/18/5 1046/18/5 1045/18/5
f 1048/18/5 1046/18/5 1047/18/5
f 1049/18/5 1044/18/5 1043/18/5
f 1050/18/5 1044/18/5 1049/18/5
f 1057/5/5 1052/5/5 1051/5/5
f 1058/5/5 1052/5/5 1057/5/5
f 1059/11/5 1054/11/5 1053/11/5
f 1060/11/5 1054/11/5 1059/11/5
f 1061/17/5 1056/17/5 1055/17/5
f 1062/17/5 1056/17/5 1061/17/5
f 1067/5/5 1064/5/5 1063/5/5
f 1068/5/5 1064/5/5 1067/5/5
f 1073/5/5 1066/5/5 1065/5/5
f 1074/5/5 1066/5/5 1073/5/5
f 1075/18/5 1069/18/5 1068/18/5
f 1076/18/5 1069/18/5 1075/18/5
f 1077/18/5 1073/18/5 1072/18/5
f 1078/18/5 1073/18/5 1077/18/5
f 1079/18/5 1071/18/5 1070/18/5
f 1080/18/5 1071/18/5 1079/18/5
f 1084/16/5 1082/16/5 1081/16/5
f 1085/16/5 1082/16/5 1084/16/5
f 1086/16/5 1082/16/5 1085/16/5
f 1087/15/5 1083/15/5 1082/15/5
f 1087/16/5 1082/16/5 1086/16/5
f 1088/15/5 1083/15/5 1087/15/5
f 1089/15/5 1083/15/5 1088/15/5
f 1092/17/5 1086/17/5 1085/17/5
f 1093/17/5 1086/17/5 1092/17/5
f 1094/17/5 1088/17/5 1087/17/5
f 1095/17/5 1088/17/5 1094/17/5
f 1098/5/5 1091/5/5 1090/5/5
f 1099/5/5 1091/5/5 1098/5/5
f 1100/5/5 1097/5/5 1096/5/5
f 1101/5/5 1097/5/5 1100/5/5
f 1106/5/5 1103/5/5 1102/5/5
f 1107/5/5 1103/5/5 1106/5/5
f 1108/5/5 1105/5/5 1104/5/5
f 1109/5/5 1105/5/5 1108/5/5
f 1114/5/5 1111/5/5 1110/5/5
f 1115/5/5 1111/5/5 1114/5/5
f 1116/5/5 1113/5/5 1112/5/5
f 1117/5/5 1113/5/5 1116/5/5
f 1122/5/5 1119/5/5 1118/5/5
f 1123/5/5 1119/5/5 1122/5/5
f 1124/5/5 1121/5/5 1120/5/5
f 1125/5/5 1121/5/5 1124/5/5
f 1130/5/5 1127/5/5 1126/5/5
f 1131/5/5 1127/5/5 1130/5/5
f 1132/5/5 1129/5/5 1128/5/5
f 1133/5/5 1129/5/5 1132/5/5
f 1134/5/6 1135/5/6 1140/5/6
f 1140/5/6 1135/5/6 1141/5/6
f 1136/5/6 1137/5/6 1142/5/6
f 1142/5/6 1137/5/6 1143/5/6
f 1138/5/6 1139/5/6 1144/5/6
f 1144/5/6 1139/5/6 1145/5/6
f 1146/5/6 1147/5/6 1148/5/6
f 1148/5/6 1147/5/6 1149/5/6
f 1150/5/6 1151/5/6 1152/5/6
f 1152/5/6 1151/5/6 1153/5/6
f 1154/10/6 1155/10/6 1161/10/6
f 1155/7/6 1156/7/6 1162/7/6
f 1161/10/6 1155/10/6 1162/10/6
f 1156/10/6 1157/10/6 1163/10/6
f 1162/7/6 1156/7/6 1163/7/6
f 1157/7/6 1158/7/6 1164/7/6
f 1163/10/6 1157/10/6 1164/10/6
f 1158/10/6 1159/10/6 1165/10/6
f 1164/7/6 1158/7/6 1165/7/6
f 1159/7/6 1160/7/6 1166/7/6
f 1165/10/6 1159/10/6 1166/10/6
f 1166/7/6 1160/7/6 1167/7/6
f 1161/7/6 1162/7/6 1170/7/6
f 1170/7/6 1162/7/6 1171/7/6
f 1166/10/6 1167/10/6 1172/10/6
f 1172/10/6 1167/10/6 1173/10/6
f 1168/1/6 1169/1/6 1175/1/6
f 1175/1/6 1169/1/6 1176/1/6
f 1170/10/6 1171/10/6 1177/10/6
f 1177/10/6 1171/10/6 1178/10/6
f 1172/7/6 1173/7/6 1179/7/6
f 1173/1/6 1174/1/6 1180/1/6
f 1179/7/6 1173/7/6 1180/7/6
f 1180/1/6 1174/1/6 1181/1/6
f 1177/7/6 1178/7/6 1182/7/6
f 1182/7/6 1178/7/6 1183/7/6
f 1179/10/6 1180/10/6 1187/10/6
f 1187/10/6 1180/10/6 1188/10/6
f 1182/10/6 1183/10/6 1189/10/6
f 1183/7/6 1184/7/6 1190/7/6
f 1189/10/6 1183/10/6 1190/10/6
f 1190/7/6 1184/7/6 1191/7/6
f 1185/7/6 1186/7/6 1192/7/6
f 1192/7/6 1186/7/6 1193/7/6
f 1187/7/6 1188/7/6 1194/7/6
f 1194/7/6 1188/7/6 1195/7/6
f 1196/1/6 1197/1/6 1200/1/6
f 1200/1/6 1197/1/6 1201/1/6
f 1198/1/6 1199/1/6 1202/1/6
f 1202/1/6 1199/1/6 1203/1/6
f 1204/13/6 1205/13/6 1206/13/6
f 1206/13/6 1205/13/6 1207/13/6
f 1206/6/6 1207/6/6 1208/6/6
f 1208/6/6 1207/6/6 1209/6/6
f 1210/5/6 1211/5/6 1214/5/6
f 1214/5/6 1211/5/6 1215/5/6
f 1212/1/6 1213/1/6 1216/1/6
f 1216/1/6 1213/1/6 1217/1/6
f 1218/11/6 1219/11/6 1223/11/6
f 1223/11/6 1219/11/6 1224/11/6
f 1220/11/6 1221/11/6 1225/11/6
f 1225/11/6 1221/11/6 1226/11/6
f 1222/11/6 1223/11/6 1230/11/6
f 1230/11/6 1223/11/6 1231/11/6
f 1226/11/6 1227/11/6 1232/11/6
f 1232/11/6 1227/11/6 1233/11/6
f 1228/5/6 1229/5/6 1234/5/6
f 1234/5/6 1229/5/6 1235/5/6
f 1236/6/6 1237/6/6 1240/6/6
f 1240/6/6 1237/6/6 1241/6/6
f 1238/6/6 1239/6/6 1242/6/6
f 1240/6/6 1241/6/6 1243/6/6
f 1241/12/6 1242/12/6 1244/12/6
f 1243/6/6 1241/6/6 1244/6/6
f 1242/6/6 1239/6/6 1245/6/6
f 1244/12/6 1242/12/6 1245/12/6
f 1245/6/6 1239/6/6 1246/6/6
f 1247/5/6 1248/5/6 1249/5/6
f 1249/5/6 1248/5/6 1250/5/6
f 1251/5/6 1252/5/6 1258/5/6
f 1258/5/6 1252/5/6 1259/5/6
f 1253/5/6 1254/5/6 1260/5/6
f 1260/5/6 1254/5/6 1261/5/6
f 1255/5/6 1256/5/6 1262/5/6
f 1256/14/6 1257/14/6 1263/14/6
f 1262/5/6 1256/5/6 1263/5/6
f 1263/14/6 1257/14/6 1264/14/6
f 1265/5/6 1266/5/6 1269/5/6
f 1269/5/6 1266/5/6 1270/5/6
f 1267/5/6 1268/5/6 1271/5/6
f 1271/5/6 1268/5/6 1272/5/6
f 1273/5/6 1274/5/6 1277/5/6
f 1277/5/6 1274/5/6 1278/5/6
f 1275/5/6 1276/5/6 1279/5/6
f 1279/5/6 1276/5/6 1280/5/6
f 1281/5/6 1282/5/6 1285/5/6
f 1285/5/6 1282/5/6 1286/5/6
f 1283/5/6 1284/5/6 1287/5/6
f 1287/5/6 1284/5/6 1288/5/6
f 1289/5/6 1290/5/6 1293/5/6
f 1293/5/6 1290/5/6 1294/5/6
f 1291/5/6 1292/5/6 1295/5/6
f 1295/5/6 1292/5/6 1296/5/6
f 1297/18/6 1298/18/6 1299/18/6
f 1299/18/6 1298/18/6 1300/18/6
f 1301/16/6 1302/16/6 1306/16/6
f 1306/16/6 1302/16/6 1307/16/6
f 1302/15/6 1303/15/6 1308/15/6
f 1307/16/6 1302/16/6 1308/16/6
f 1303/14/6 1304/14/6 1309/14/6
f 1308/15/6 1303/15/6 1309/15/6
f 1309/14/6 1304/14/6 1310/14/6
f 1305/5/6 1306/5/6 1312/5/6
f 1312/5/6 1306/5/6 1313/5/6
f 1310/17/6 1311/17/6 1314/17/6
f 1314/17/6 1311/17/6 1315/17/6
f 1316/5/6 1317/5/6 1320/5/6
f 1320/5/6 1317/5/6 1321/5/6
f 1318/5/6 1319/5/6 1322/5/6
f 1322/5/6 1319/5/6 1323/5/6
f 1321/18/6 1322/18/6 1324/18/6
f 1324/18/6 1322/18/6 1325/18/6
f 1326/18/6 1327/18/6 1330/18/6
f 1327/17/6 1328/17/6 1331/17/6
f 1330/18/6 1327/18/6 1331/18/6
f 1331/17/6 1328/17/6 1332/17/6
f 1332/17/6 1328/17/6 1333/17/6
f 1332/17/6 1333/17/6 1335/17/6
f 1333/5/6 1334/5/6 1336/5/6
f 1335/17/6 1333/17/6 1336/17/6
f 1329/5/6 1330/5/6 1337/5/6
f 1330/18/6 1331/18/6 1338/18/6
f 1337/5/6 1330/5/6 1338/5/6
f 1338/18/6 1331/18/6 1339/18/6
f 1335/18/6 1336/18/6 1340/18/6
f 1336/5/6 1334/5/6 1341/5/6
f 1340/18/6 1336/18/6 1341/18/6
f 1341/5/6 1334/5/6 1342/5/6
f 1339/18/6 1340/18/6 1343/18/6
f 1338/18/6 1339/18/6 1343/18/6
f 1340/18/6 1341/18/6 1343/18/6
f 1343/18/6 1341/18/6 1344/18/6
f 1345/19/6 1346/19/6 1347/19/6
f 1347/19/6 1346/19/6 1348/19/6
