# MagicaVoxel @ Ephtracy

# group
o 

# material
mtllib Enemy.mtl
usemtl palette

# normals
vn -1 0 0
vn 1 0 0
vn 0 0 1
vn 0 0 -1
vn 0 -1 0
vn 0 1 0

# texcoords
vt 0.154297 0.5
vt 0.158203 0.5
vt 0.275391 0.5
vt 0.841797 0.5

# verts
v -1.5 0 1.1
v -1.5 0 -0.5
v -1.5 0.1 1.1
v -1.5 0.1 -0.5
v -1.3 0.1 0.8
v -1.3 0.1 0
v -1.3 0.2 0.8
v -1.3 0.2 0.7
v -1.3 0.2 0.2
v -1.3 0.2 0
v -1.3 0.3 0.7
v -1.3 0.3 0.6
v -1.3 0.4 0.6
v -1.3 0.4 0.5
v -1.3 0.4 0.3
v -1.3 0.4 0.2
v -1.3 0.5 0.5
v -1.3 0.5 0.3
v -0.9 0.5 0.5
v -0.9 0.5 0.4
v -0.9 0.7 0.5
v -0.9 0.7 0.4
v -0.9 1.2 0.5
v -0.9 1.2 0.4
v -0.8 2.1 -0.2
v -0.8 2.1 -0.3
v -0.8 2.9 -0.1
v -0.8 2.9 -0.2
v -0.8 3 -0.2
v -0.8 3 -0.3
v -0.8 3.2 0.1
v -0.8 3.2 -0.1
v -0.8 3.3 -0.1
v -0.8 3.3 -0.2
v -0.8 3.4 0
v -0.8 3.4 -0.1
v -0.8 3.5 0.3
v -0.8 3.5 0.1
v -0.8 3.6 0.4
v -0.8 3.6 0.3
v -0.8 3.7 0.4
v -0.8 3.7 0
v -0.5 0.7 0.5
v -0.5 0.7 -1.1
v -0.5 1.1 0.5
v -0.5 1.1 0.4
v -0.5 1.2 0.4
v -0.5 1.2 -1.1
v -0.2 1.2 -0.2
v -0.2 1.2 -0.4
v -0.2 1.6 -0.3
v -0.2 1.6 -0.4
v -0.2 1.7 -0.2
v -0.2 1.7 -0.3
v -0.1 1.7 -0.2
v -0.1 1.7 -0.3
v -0.1 2.1 -0.2
v -0.1 2.1 -0.3
v 0.2 2.2 -0.2
v 0.2 2.2 -0.3
v 0.2 2.3 -0.2
v 0.2 2.3 -0.3
v 0.5 2.3 -0.2
v 0.5 2.3 -0.3
v 0.5 2.4 -0.2
v 0.5 2.4 -0.3
v 0.6 2.4 -0.2
v 0.6 2.4 -0.3
v 0.6 2.6 -0.2
v 0.6 2.6 -0.3
v 0.7 0 1.1
v 0.7 0 0.5
v 0.7 0 -0.5
v 0.7 0.1 1.1
v 0.7 0.1 0.5
v 0.7 0.1 -0.5
v 0.7 2.6 -0.2
v 0.7 2.6 -0.3
v 0.7 2.9 -0.1
v 0.7 2.9 -0.2
v 0.7 3 -0.2
v 0.7 3 -0.3
v 0.7 3.2 0.1
v 0.7 3.2 -0.1
v 0.7 3.3 -0.1
v 0.7 3.3 -0.2
v 0.7 3.4 0
v 0.7 3.4 -0.1
v 0.7 3.5 0.3
v 0.7 3.5 0.1
v 0.7 3.6 0.4
v 0.7 3.6 0.3
v 0.7 3.7 0.4
v 0.7 3.7 0
v 0.8 0.1 0.8
v 0.8 0.1 0.5
v 0.8 0.2 0.8
v 0.8 0.2 0.7
v 0.8 0.3 0.7
v 0.8 0.3 0.6
v 0.8 0.3 0.5
v 0.8 0.3 0.4
v 0.8 0.4 0.6
v 0.8 0.4 0.5
v 0.8 0.7 0.5
v 0.8 0.7 0.4
v 0.8 1.1 0.5
v 0.8 1.1 0.4
v 0.9 0.1 0.5
v 0.9 0.1 0
v 0.9 0.2 0.2
v 0.9 0.2 0
v 0.9 0.3 0.5
v 0.9 0.3 0.4
v 0.9 0.4 0.3
v 0.9 0.4 0.2
v 0.9 0.5 0.4
v 0.9 0.5 0.3
v -0.9 0.1 0.5
v -0.9 0.1 0
v -0.9 0.2 0.2
v -0.9 0.2 0
v -0.9 0.3 0.5
v -0.9 0.3 0.4
v -0.9 0.4 0.3
v -0.9 0.4 0.2
v -0.9 0.5 0.4
v -0.9 0.5 0.3
v -0.8 0.1 0.8
v -0.8 0.1 0.5
v -0.8 0.2 0.8
v -0.8 0.2 0.7
v -0.8 0.3 0.7
v -0.8 0.3 0.6
v -0.8 0.3 0.5
v -0.8 0.3 0.4
v -0.8 0.4 0.6
v -0.8 0.4 0.5
v -0.8 0.7 0.5
v -0.8 0.7 0.4
v -0.8 1.1 0.5
v -0.8 1.1 0.4
v -0.7 0 1.1
v -0.7 0 0.5
v -0.7 0 -0.5
v -0.7 0.1 1.1
v -0.7 0.1 0.5
v -0.7 0.1 -0.5
v -0.7 2.6 -0.2
v -0.7 2.6 -0.3
v -0.7 2.9 -0.1
v -0.7 2.9 -0.2
v -0.7 3 -0.2
v -0.7 3 -0.3
v -0.7 3.2 0.1
v -0.7 3.2 -0.1
v -0.7 3.3 -0.1
v -0.7 3.3 -0.2
v -0.7 3.4 0
v -0.7 3.4 -0.1
v -0.7 3.5 0.3
v -0.7 3.5 0.1
v -0.7 3.6 0.4
v -0.7 3.6 0.3
v -0.7 3.7 0.4
v -0.7 3.7 0
v -0.6 2.4 -0.2
v -0.6 2.4 -0.3
v -0.6 2.6 -0.2
v -0.6 2.6 -0.3
v -0.5 2.3 -0.2
v -0.5 2.3 -0.3
v -0.5 2.4 -0.2
v -0.5 2.4 -0.3
v -0.2 2.2 -0.2
v -0.2 2.2 -0.3
v -0.2 2.3 -0.2
v -0.2 2.3 -0.3
v 0.1 1.7 -0.2
v 0.1 1.7 -0.3
v 0.1 2.1 -0.2
v 0.1 2.1 -0.3
v 0.2 1.2 -0.2
v 0.2 1.2 -0.4
v 0.2 1.6 -0.3
v 0.2 1.6 -0.4
v 0.2 1.7 -0.2
v 0.2 1.7 -0.3
v 0.5 0.7 0.5
v 0.5 0.7 -1.1
v 0.5 1.1 0.5
v 0.5 1.1 0.4
v 0.5 1.2 0.4
v 0.5 1.2 -1.1
v 0.8 2.1 -0.2
v 0.8 2.1 -0.3
v 0.8 2.9 -0.1
v 0.8 2.9 -0.2
v 0.8 3 -0.2
v 0.8 3 -0.3
v 0.8 3.2 0.1
v 0.8 3.2 -0.1
v 0.8 3.3 -0.1
v 0.8 3.3 -0.2
v 0.8 3.4 0
v 0.8 3.4 -0.1
v 0.8 3.5 0.3
v 0.8 3.5 0.1
v 0.8 3.6 0.4
v 0.8 3.6 0.3
v 0.8 3.7 0.4
v 0.8 3.7 0
v 0.9 0.5 0.5
v 0.9 0.5 0.4
v 0.9 0.7 0.5
v 0.9 0.7 0.4
v 0.9 1.2 0.5
v 0.9 1.2 0.4
v 1.3 0.1 0.8
v 1.3 0.1 0
v 1.3 0.2 0.8
v 1.3 0.2 0.7
v 1.3 0.2 0.2
v 1.3 0.2 0
v 1.3 0.3 0.7
v 1.3 0.3 0.6
v 1.3 0.4 0.6
v 1.3 0.4 0.5
v 1.3 0.4 0.3
v 1.3 0.4 0.2
v 1.3 0.5 0.5
v 1.3 0.5 0.3
v 1.5 0 1.1
v 1.5 0 -0.5
v 1.5 0.1 1.1
v 1.5 0.1 -0.5
v -1.5 0 1.1
v -1.5 0.1 1.1
v -0.7 0 1.1
v -0.7 0.1 1.1
v 0.7 0 1.1
v 0.7 0.1 1.1
v 1.5 0 1.1
v 1.5 0.1 1.1
v -1.3 0.1 0.8
v -1.3 0.2 0.8
v -0.8 0.1 0.8
v -0.8 0.2 0.8
v 0.8 0.1 0.8
v 0.8 0.2 0.8
v 1.3 0.1 0.8
v 1.3 0.2 0.8
v -1.3 0.2 0.7
v -1.3 0.3 0.7
v -0.8 0.2 0.7
v -0.8 0.3 0.7
v 0.8 0.2 0.7
v 0.8 0.3 0.7
v 1.3 0.2 0.7
v 1.3 0.3 0.7
v -1.3 0.3 0.6
v -1.3 0.4 0.6
v -0.8 0.3 0.6
v -0.8 0.4 0.6
v 0.8 0.3 0.6
v 0.8 0.4 0.6
v 1.3 0.3 0.6
v 1.3 0.4 0.6
v -1.3 0.4 0.5
v -1.3 0.5 0.5
v -0.9 0.4 0.5
v -0.9 0.5 0.5
v -0.9 0.7 0.5
v -0.9 1.2 0.5
v -0.8 0.4 0.5
v -0.8 0.7 0.5
v -0.8 1.1 0.5
v -0.5 0.7 0.5
v -0.5 1.1 0.5
v 0.5 0.7 0.5
v 0.5 1.1 0.5
v 0.8 0.4 0.5
v 0.8 0.7 0.5
v 0.8 1.1 0.5
v 0.9 0.4 0.5
v 0.9 0.5 0.5
v 0.9 0.7 0.5
v 0.9 1.2 0.5
v 1.3 0.4 0.5
v 1.3 0.5 0.5
v -0.8 3.6 0.4
v -0.8 3.7 0.4
v -0.7 3.6 0.4
v -0.7 3.7 0.4
v 0.7 3.6 0.4
v 0.7 3.7 0.4
v 0.8 3.6 0.4
v 0.8 3.7 0.4
v -0.8 3.5 0.3
v -0.8 3.6 0.3
v -0.7 3.5 0.3
v -0.7 3.6 0.3
v 0.7 3.5 0.3
v 0.7 3.6 0.3
v 0.8 3.5 0.3
v 0.8 3.6 0.3
v -0.8 3.2 0.1
v -0.8 3.5 0.1
v -0.7 3.2 0.1
v -0.7 3.5 0.1
v 0.7 3.2 0.1
v 0.7 3.5 0.1
v 0.8 3.2 0.1
v 0.8 3.5 0.1
v -0.8 2.9 -0.1
v -0.8 3.2 -0.1
v -0.7 2.9 -0.1
v -0.7 3.2 -0.1
v 0.7 2.9 -0.1
v 0.7 3.2 -0.1
v 0.8 2.9 -0.1
v 0.8 3.2 -0.1
v -0.8 2.1 -0.2
v -0.8 2.9 -0.2
v -0.7 2.6 -0.2
v -0.7 2.9 -0.2
v -0.6 2.4 -0.2
v -0.6 2.6 -0.2
v -0.5 2.3 -0.2
v -0.5 2.4 -0.2
v -0.2 1.2 -0.2
v -0.2 1.7 -0.2
v -0.2 2.2 -0.2
v -0.2 2.3 -0.2
v -0.1 1.7 -0.2
v -0.1 2.1 -0.2
v 0.1 1.7 -0.2
v 0.1 2.1 -0.2
v 0.2 1.2 -0.2
v 0.2 1.7 -0.2
v 0.2 2.2 -0.2
v 0.2 2.3 -0.2
v 0.5 2.3 -0.2
v 0.5 2.4 -0.2
v 0.6 2.4 -0.2
v 0.6 2.6 -0.2
v 0.7 2.6 -0.2
v 0.7 2.9 -0.2
v 0.8 2.1 -0.2
v 0.8 2.9 -0.2
v -0.9 0.1 0.5
v -0.9 0.3 0.5
v -0.8 0.1 0.5
v -0.8 0.3 0.5
v 0.8 0.1 0.5
v 0.8 0.3 0.5
v 0.9 0.1 0.5
v 0.9 0.3 0.5
v -0.9 0.3 0.4
v -0.9 0.5 0.4
v -0.9 0.7 0.4
v -0.9 1.2 0.4
v -0.8 0.3 0.4
v -0.8 0.7 0.4
v -0.8 1.1 0.4
v -0.5 1.1 0.4
v -0.5 1.2 0.4
v 0.5 1.1 0.4
v 0.5 1.2 0.4
v 0.8 0.3 0.4
v 0.8 0.7 0.4
v 0.8 1.1 0.4
v 0.9 0.3 0.4
v 0.9 0.5 0.4
v 0.9 0.7 0.4
v 0.9 1.2 0.4
v -1.3 0.4 0.3
v -1.3 0.5 0.3
v -0.9 0.4 0.3
v -0.9 0.5 0.3
v 0.9 0.4 0.3
v 0.9 0.5 0.3
v 1.3 0.4 0.3
v 1.3 0.5 0.3
v -1.3 0.2 0.2
v -1.3 0.4 0.2
v -0.9 0.2 0.2
v -0.9 0.4 0.2
v 0.9 0.2 0.2
v 0.9 0.4 0.2
v 1.3 0.2 0.2
v 1.3 0.4 0.2
v -1.3 0.1 0
v -1.3 0.2 0
v -0.9 0.1 0
v -0.9 0.2 0
v -0.8 3.4 0
v -0.8 3.7 0
v -0.7 3.4 0
v -0.7 3.7 0
v 0.7 3.4 0
v 0.7 3.7 0
v 0.8 3.4 0
v 0.8 3.7 0
v 0.9 0.1 0
v 0.9 0.2 0
v 1.3 0.1 0
v 1.3 0.2 0
v -0.8 3.3 -0.1
v -0.8 3.4 -0.1
v -0.7 3.3 -0.1
v -0.7 3.4 -0.1
v 0.7 3.3 -0.1
v 0.7 3.4 -0.1
v 0.8 3.3 -0.1
v 0.8 3.4 -0.1
v -0.8 3 -0.2
v -0.8 3.3 -0.2
v -0.7 3 -0.2
v -0.7 3.3 -0.2
v 0.7 3 -0.2
v 0.7 3.3 -0.2
v 0.8 3 -0.2
v 0.8 3.3 -0.2
v -0.8 2.1 -0.3
v -0.8 3 -0.3
v -0.7 2.6 -0.3
v -0.7 3 -0.3
v -0.6 2.4 -0.3
v -0.6 2.6 -0.3
v -0.5 2.3 -0.3
v -0.5 2.4 -0.3
v -0.2 1.6 -0.3
v -0.2 1.7 -0.3
v -0.2 2.2 -0.3
v -0.2 2.3 -0.3
v -0.1 1.7 -0.3
v -0.1 2.1 -0.3
v 0.1 1.7 -0.3
v 0.1 2.1 -0.3
v 0.2 1.6 -0.3
v 0.2 1.7 -0.3
v 0.2 2.2 -0.3
v 0.2 2.3 -0.3
v 0.5 2.3 -0.3
v 0.5 2.4 -0.3
v 0.6 2.4 -0.3
v 0.6 2.6 -0.3
v 0.7 2.6 -0.3
v 0.7 3 -0.3
v 0.8 2.1 -0.3
v 0.8 3 -0.3
v -0.2 1.2 -0.4
v -0.2 1.6 -0.4
v 0.2 1.2 -0.4
v 0.2 1.6 -0.4
v -1.5 0 -0.5
v -1.5 0.1 -0.5
v -0.9 0 -0.5
v -0.9 0.1 -0.5
v -0.7 0 -0.5
v -0.7 0.1 -0.5
v 0.7 0 -0.5
v 0.7 0.1 -0.5
v 0.9 0 -0.5
v 0.9 0.1 -0.5
v 1.5 0 -0.5
v 1.5 0.1 -0.5
v -0.5 0.7 -1.1
v -0.5 1.2 -1.1
v 0.5 0.7 -1.1
v 0.5 1.2 -1.1
v -1.5 0 1.1
v -0.7 0 1.1
v 0.7 0 1.1
v 1.5 0 1.1
v -0.9 0 0.5
v -0.7 0 0.5
v 0.7 0 0.5
v 0.9 0 0.5
v -1.5 0 -0.5
v -0.9 0 -0.5
v -0.7 0 -0.5
v 0.7 0 -0.5
v 0.9 0 -0.5
v 1.5 0 -0.5
v -0.9 0.3 0.5
v -0.8 0.3 0.5
v 0.8 0.3 0.5
v 0.9 0.3 0.5
v -0.9 0.3 0.4
v -0.8 0.3 0.4
v 0.8 0.3 0.4
v 0.9 0.3 0.4
v -0.5 0.7 0.5
v 0.5 0.7 0.5
v -0.5 0.7 -1.1
v 0.5 0.7 -1.1
v -0.8 1.1 0.5
v -0.5 1.1 0.5
v 0.5 1.1 0.5
v 0.8 1.1 0.5
v -0.8 1.1 0.4
v -0.5 1.1 0.4
v 0.5 1.1 0.4
v 0.8 1.1 0.4
v -0.8 2.1 -0.2
v -0.1 2.1 -0.2
v 0.1 2.1 -0.2
v 0.8 2.1 -0.2
v -0.8 2.1 -0.3
v -0.1 2.1 -0.3
v 0.1 2.1 -0.3
v 0.8 2.1 -0.3
v -0.8 2.9 -0.1
v -0.7 2.9 -0.1
v 0.7 2.9 -0.1
v 0.8 2.9 -0.1
v -0.8 2.9 -0.2
v -0.7 2.9 -0.2
v 0.7 2.9 -0.2
v 0.8 2.9 -0.2
v -0.8 3.2 0.1
v -0.7 3.2 0.1
v 0.7 3.2 0.1
v 0.8 3.2 0.1
v -0.8 3.2 -0.1
v -0.7 3.2 -0.1
v 0.7 3.2 -0.1
v 0.8 3.2 -0.1
v -0.8 3.5 0.3
v -0.7 3.5 0.3
v 0.7 3.5 0.3
v 0.8 3.5 0.3
v -0.8 3.5 0.1
v -0.7 3.5 0.1
v 0.7 3.5 0.1
v 0.8 3.5 0.1
v -0.8 3.6 0.4
v -0.7 3.6 0.4
v 0.7 3.6 0.4
v 0.8 3.6 0.4
v -0.8 3.6 0.3
v -0.7 3.6 0.3
v 0.7 3.6 0.3
v 0.8 3.6 0.3
v -1.5 0.1 1.1
v -0.7 0.1 1.1
v 0.7 0.1 1.1
v 1.5 0.1 1.1
v -1.3 0.1 0.8
v -0.8 0.1 0.8
v 0.8 0.1 0.8
v 1.3 0.1 0.8
v -0.9 0.1 0.5
v -0.8 0.1 0.5
v -0.7 0.1 0.5
v 0.7 0.1 0.5
v 0.8 0.1 0.5
v 0.9 0.1 0.5
v -1.3 0.1 0
v -0.9 0.1 0
v 0.9 0.1 0
v 1.3 0.1 0
v -1.5 0.1 -0.5
v -0.9 0.1 -0.5
v -0.7 0.1 -0.5
v 0.7 0.1 -0.5
v 0.9 0.1 -0.5
v 1.5 0.1 -0.5
v -1.3 0.2 0.8
v -0.8 0.2 0.8
v 0.8 0.2 0.8
v 1.3 0.2 0.8
v -1.3 0.2 0.7
v -0.8 0.2 0.7
v 0.8 0.2 0.7
v 1.3 0.2 0.7
v -1.3 0.2 0.2
v -0.9 0.2 0.2
v 0.9 0.2 0.2
v 1.3 0.2 0.2
v -1.3 0.2 0
v -0.9 0.2 0
v 0.9 0.2 0
v 1.3 0.2 0
v -1.3 0.3 0.7
v -0.8 0.3 0.7
v 0.8 0.3 0.7
v 1.3 0.3 0.7
v -1.3 0.3 0.6
v -0.8 0.3 0.6
v 0.8 0.3 0.6
v 1.3 0.3 0.6
v -1.3 0.4 0.6
v -0.8 0.4 0.6
v 0.8 0.4 0.6
v 1.3 0.4 0.6
v -1.3 0.4 0.5
v -0.9 0.4 0.5
v -0.8 0.4 0.5
v 0.8 0.4 0.5
v 0.9 0.4 0.5
v 1.3 0.4 0.5
v -1.3 0.4 0.3
v -0.9 0.4 0.3
v 0.9 0.4 0.3
v 1.3 0.4 0.3
v -1.3 0.4 0.2
v -0.9 0.4 0.2
v 0.9 0.4 0.2
v 1.3 0.4 0.2
v -1.3 0.5 0.5
v -0.9 0.5 0.5
v 0.9 0.5 0.5
v 1.3 0.5 0.5
v -0.9 0.5 0.4
v 0.9 0.5 0.4
v -1.3 0.5 0.3
v -0.9 0.5 0.3
v 0.9 0.5 0.3
v 1.3 0.5 0.3
v -0.9 1.2 0.5
v 0.9 1.2 0.5
v -0.9 1.2 0.4
v -0.5 1.2 0.4
v 0.5 1.2 0.4
v 0.9 1.2 0.4
v -0.2 1.2 -0.2
v 0.2 1.2 -0.2
v -0.2 1.2 -0.4
v 0.2 1.2 -0.4
v -0.5 1.2 -1.1
v 0.5 1.2 -1.1
v -0.2 1.6 -0.3
v 0.2 1.6 -0.3
v -0.2 1.6 -0.4
v 0.2 1.6 -0.4
v -0.2 1.7 -0.2
v -0.1 1.7 -0.2
v 0.1 1.7 -0.2
v 0.2 1.7 -0.2
v -0.2 1.7 -0.3
v -0.1 1.7 -0.3
v 0.1 1.7 -0.3
v 0.2 1.7 -0.3
v -0.2 2.2 -0.2
v 0.2 2.2 -0.2
v -0.2 2.2 -0.3
v 0.2 2.2 -0.3
v -0.5 2.3 -0.2
v -0.2 2.3 -0.2
v 0.2 2.3 -0.2
v 0.5 2.3 -0.2
v -0.5 2.3 -0.3
v -0.2 2.3 -0.3
v 0.2 2.3 -0.3
v 0.5 2.3 -0.3
v -0.6 2.4 -0.2
v -0.5 2.4 -0.2
v 0.5 2.4 -0.2
v 0.6 2.4 -0.2
v -0.6 2.4 -0.3
v -0.5 2.4 -0.3
v 0.5 2.4 -0.3
v 0.6 2.4 -0.3
v -0.7 2.6 -0.2
v -0.6 2.6 -0.2
v 0.6 2.6 -0.2
v 0.7 2.6 -0.2
v -0.7 2.6 -0.3
v -0.6 2.6 -0.3
v 0.6 2.6 -0.3
v 0.7 2.6 -0.3
v -0.8 3 -0.2
v -0.7 3 -0.2
v 0.7 3 -0.2
v 0.8 3 -0.2
v -0.8 3 -0.3
v -0.7 3 -0.3
v 0.7 3 -0.3
v 0.8 3 -0.3
v -0.8 3.3 -0.1
v -0.7 3.3 -0.1
v 0.7 3.3 -0.1
v 0.8 3.3 -0.1
v -0.8 3.3 -0.2
v -0.7 3.3 -0.2
v 0.7 3.3 -0.2
v 0.8 3.3 -0.2
v -0.8 3.4 0
v -0.7 3.4 0
v 0.7 3.4 0
v 0.8 3.4 0
v -0.8 3.4 -0.1
v -0.7 3.4 -0.1
v 0.7 3.4 -0.1
v 0.8 3.4 -0.1
v -0.8 3.7 0.4
v -0.7 3.7 0.4
v 0.7 3.7 0.4
v 0.8 3.7 0.4
v -0.8 3.7 0
v -0.7 3.7 0
v 0.7 3.7 0
v 0.8 3.7 0

# faces
f 3/3/1 2/3/1 1/3/1
f 4/3/1 2/3/1 3/3/1
f 7/1/1 6/1/1 5/1/1
f 8/1/1 6/1/1 7/1/1
f 9/1/1 6/1/1 8/1/1
f 10/1/1 6/1/1 9/1/1
f 11/1/1 9/1/1 8/1/1
f 12/1/1 9/1/1 11/1/1
f 13/1/1 9/1/1 12/1/1
f 14/1/1 9/1/1 13/1/1
f 15/1/1 9/1/1 14/1/1
f 16/1/1 9/1/1 15/1/1
f 17/1/1 15/1/1 14/1/1
f 18/1/1 15/1/1 17/1/1
f 21/2/1 20/2/1 19/2/1
f 22/2/1 20/2/1 21/2/1
f 23/1/1 22/1/1 21/1/1
f 24/1/1 22/1/1 23/1/1
f 28/2/1 26/2/1 25/2/1
f 29/2/1 26/2/1 28/2/1
f 29/2/1 28/2/1 27/2/1
f 30/2/1 26/2/1 29/2/1
f 32/2/1 29/2/1 27/2/1
f 33/2/1 29/2/1 32/2/1
f 33/2/1 32/2/1 31/2/1
f 34/2/1 29/2/1 33/2/1
f 35/2/1 33/2/1 31/2/1
f 36/2/1 33/2/1 35/2/1
f 38/2/1 35/2/1 31/2/1
f 40/2/1 38/2/1 37/2/1
f 41/2/1 40/2/1 39/2/1
f 42/2/1 35/2/1 38/2/1
f 42/2/1 40/2/1 41/2/1
f 42/2/1 38/2/1 40/2/1
f 45/1/1 44/1/1 43/1/1
f 46/1/1 44/1/1 45/1/1
f 47/1/1 44/1/1 46/1/1
f 48/1/1 44/1/1 47/1/1
f 51/2/1 50/2/1 49/2/1
f 52/2/1 50/2/1 51/2/1
f 53/2/1 51/2/1 49/2/1
f 54/2/1 51/2/1 53/2/1
f 57/2/1 56/2/1 55/2/1
f 58/2/1 56/2/1 57/2/1
f 61/2/1 60/2/1 59/2/1
f 62/2/1 60/2/1 61/2/1
f 65/2/1 64/2/1 63/2/1
f 66/2/1 64/2/1 65/2/1
f 69/2/1 68/2/1 67/2/1
f 70/2/1 68/2/1 69/2/1
f 74/3/1 72/3/1 71/3/1
f 75/4/1 73/4/1 72/4/1
f 75/3/1 72/3/1 74/3/1
f 76/4/1 73/4/1 75/4/1
f 80/2/1 78/2/1 77/2/1
f 81/2/1 78/2/1 80/2/1
f 81/2/1 80/2/1 79/2/1
f 82/2/1 78/2/1 81/2/1
f 84/2/1 81/2/1 79/2/1
f 85/2/1 81/2/1 84/2/1
f 85/2/1 84/2/1 83/2/1
f 86/2/1 81/2/1 85/2/1
f 87/2/1 85/2/1 83/2/1
f 88/2/1 85/2/1 87/2/1
f 90/2/1 87/2/1 83/2/1
f 92/2/1 90/2/1 89/2/1
f 93/2/1 92/2/1 91/2/1
f 94/2/1 87/2/1 90/2/1
f 94/2/1 92/2/1 93/2/1
f 94/2/1 90/2/1 92/2/1
f 97/1/1 96/1/1 95/1/1
f 98/1/1 96/1/1 97/1/1
f 99/1/1 96/1/1 98/1/1
f 100/1/1 96/1/1 99/1/1
f 101/1/1 96/1/1 100/1/1
f 103/1/1 101/1/1 100/1/1
f 104/2/1 102/2/1 101/2/1
f 104/1/1 101/1/1 103/1/1
f 105/2/1 102/2/1 104/2/1
f 106/2/1 102/2/1 105/2/1
f 107/1/1 106/1/1 105/1/1
f 108/1/1 106/1/1 107/1/1
f 111/1/1 110/1/1 109/1/1
f 112/1/1 110/1/1 111/1/1
f 113/1/1 111/1/1 109/1/1
f 114/1/1 111/1/1 113/1/1
f 115/1/1 111/1/1 114/1/1
f 116/1/1 111/1/1 115/1/1
f 117/1/1 115/1/1 114/1/1
f 118/1/1 115/1/1 117/1/1
f 119/1/2 120/1/2 121/1/2
f 121/1/2 120/1/2 122/1/2
f 119/1/2 121/1/2 123/1/2
f 123/1/2 121/1/2 124/1/2
f 124/1/2 121/1/2 125/1/2
f 125/1/2 121/1/2 126/1/2
f 124/1/2 125/1/2 127/1/2
f 127/1/2 125/1/2 128/1/2
f 129/1/2 130/1/2 131/1/2
f 131/1/2 130/1/2 132/1/2
f 132/1/2 130/1/2 133/1/2
f 133/1/2 130/1/2 134/1/2
f 134/1/2 130/1/2 135/1/2
f 134/1/2 135/1/2 137/1/2
f 135/2/2 136/2/2 138/2/2
f 137/1/2 135/1/2 138/1/2
f 138/2/2 136/2/2 139/2/2
f 139/2/2 136/2/2 140/2/2
f 139/1/2 140/1/2 141/1/2
f 141/1/2 140/1/2 142/1/2
f 143/3/2 144/3/2 146/3/2
f 144/4/2 145/4/2 147/4/2
f 146/3/2 144/3/2 147/3/2
f 147/4/2 145/4/2 148/4/2
f 149/2/2 150/2/2 152/2/2
f 152/2/2 150/2/2 153/2/2
f 151/2/2 152/2/2 153/2/2
f 153/2/2 150/2/2 154/2/2
f 151/2/2 153/2/2 156/2/2
f 156/2/2 153/2/2 157/2/2
f 155/2/2 156/2/2 157/2/2
f 157/2/2 153/2/2 158/2/2
f 155/2/2 157/2/2 159/2/2
f 159/2/2 157/2/2 160/2/2
f 155/2/2 159/2/2 162/2/2
f 161/2/2 162/2/2 164/2/2
f 163/2/2 164/2/2 165/2/2
f 162/2/2 159/2/2 166/2/2
f 165/2/2 164/2/2 166/2/2
f 164/2/2 162/2/2 166/2/2
f 167/2/2 168/2/2 169/2/2
f 169/2/2 168/2/2 170/2/2
f 171/2/2 172/2/2 173/2/2
f 173/2/2 172/2/2 174/2/2
f 175/2/2 176/2/2 177/2/2
f 177/2/2 176/2/2 178/2/2
f 179/2/2 180/2/2 181/2/2
f 181/2/2 180/2/2 182/2/2
f 183/2/2 184/2/2 185/2/2
f 185/2/2 184/2/2 186/2/2
f 183/2/2 185/2/2 187/2/2
f 187/2/2 185/2/2 188/2/2
f 189/1/2 190/1/2 191/1/2
f 191/1/2 190/1/2 192/1/2
f 192/1/2 190/1/2 193/1/2
f 193/1/2 190/1/2 194/1/2
f 195/2/2 196/2/2 198/2/2
f 198/2/2 196/2/2 199/2/2
f 197/2/2 198/2/2 199/2/2
f 199/2/2 196/2/2 200/2/2
f 197/2/2 199/2/2 202/2/2
f 202/2/2 199/2/2 203/2/2
f 201/2/2 202/2/2 203/2/2
f 203/2/2 199/2/2 204/2/2
f 201/2/2 203/2/2 205/2/2
f 205/2/2 203/2/2 206/2/2
f 201/2/2 205/2/2 208/2/2
f 207/2/2 208/2/2 210/2/2
f 209/2/2 210/2/2 211/2/2
f 208/2/2 205/2/2 212/2/2
f 211/2/2 210/2/2 212/2/2
f 210/2/2 208/2/2 212/2/2
f 213/2/2 214/2/2 215/2/2
f 215/2/2 214/2/2 216/2/2
f 215/1/2 216/1/2 217/1/2
f 217/1/2 216/1/2 218/1/2
f 219/1/2 220/1/2 221/1/2
f 221/1/2 220/1/2 222/1/2
f 222/1/2 220/1/2 223/1/2
f 223/1/2 220/1/2 224/1/2
f 222/1/2 223/1/2 225/1/2
f 225/1/2 223/1/2 226/1/2
f 226/1/2 223/1/2 227/1/2
f 227/1/2 223/1/2 228/1/2
f 228/1/2 223/1/2 229/1/2
f 229/1/2 223/1/2 230/1/2
f 228/1/2 229/1/2 231/1/2
f 231/1/2 229/1/2 232/1/2
f 233/3/2 234/3/2 235/3/2
f 235/3/2 234/3/2 236/3/2
f 239/3/3 238/3/3 237/3/3
f 240/3/3 238/3/3 239/3/3
f 243/3/3 242/3/3 241/3/3
f 244/3/3 242/3/3 243/3/3
f 247/1/3 246/1/3 245/1/3
f 248/1/3 246/1/3 247/1/3
f 251/1/3 250/1/3 249/1/3
f 252/1/3 250/1/3 251/1/3
f 255/1/3 254/1/3 253/1/3
f 256/1/3 254/1/3 255/1/3
f 259/1/3 258/1/3 257/1/3
f 260/1/3 258/1/3 259/1/3
f 263/1/3 262/1/3 261/1/3
f 264/1/3 262/1/3 263/1/3
f 267/1/3 266/1/3 265/1/3
f 268/1/3 266/1/3 267/1/3
f 271/1/3 270/1/3 269/1/3
f 272/1/3 270/1/3 271/1/3
f 275/2/3 272/2/3 271/2/3
f 275/2/3 273/2/3 272/2/3
f 276/1/3 274/1/3 273/1/3
f 276/2/3 273/2/3 275/2/3
f 277/1/3 274/1/3 276/1/3
f 279/1/3 274/1/3 277/1/3
f 280/1/3 279/1/3 278/1/3
f 281/1/3 274/1/3 279/1/3
f 281/1/3 279/1/3 280/1/3
f 284/1/3 274/1/3 281/1/3
f 285/2/3 283/2/3 282/2/3
f 286/2/3 283/2/3 285/2/3
f 287/1/3 284/1/3 283/1/3
f 287/2/3 283/2/3 286/2/3
f 288/1/3 274/1/3 284/1/3
f 288/1/3 284/1/3 287/1/3
f 289/1/3 286/1/3 285/1/3
f 290/1/3 286/1/3 289/1/3
f 293/2/3 292/2/3 291/2/3
f 294/2/3 292/2/3 293/2/3
f 297/2/3 296/2/3 295/2/3
f 298/2/3 296/2/3 297/2/3
f 301/2/3 300/2/3 299/2/3
f 302/2/3 300/2/3 301/2/3
f 305/2/3 304/2/3 303/2/3
f 306/2/3 304/2/3 305/2/3
f 309/2/3 308/2/3 307/2/3
f 310/2/3 308/2/3 309/2/3
f 313/2/3 312/2/3 311/2/3
f 314/2/3 312/2/3 313/2/3
f 317/2/3 316/2/3 315/2/3
f 318/2/3 316/2/3 317/2/3
f 321/2/3 320/2/3 319/2/3
f 322/2/3 320/2/3 321/2/3
f 325/2/3 324/2/3 323/2/3
f 326/2/3 324/2/3 325/2/3
f 327/2/3 325/2/3 323/2/3
f 328/2/3 325/2/3 327/2/3
f 329/2/3 327/2/3 323/2/3
f 330/2/3 327/2/3 329/2/3
f 333/2/3 329/2/3 323/2/3
f 334/2/3 329/2/3 333/2/3
f 335/2/3 332/2/3 331/2/3
f 336/2/3 333/2/3 323/2/3
f 337/2/3 335/2/3 331/2/3
f 337/2/3 336/2/3 335/2/3
f 338/2/3 333/2/3 336/2/3
f 338/2/3 336/2/3 337/2/3
f 339/2/3 337/2/3 331/2/3
f 340/2/3 337/2/3 339/2/3
f 341/2/3 333/2/3 338/2/3
f 343/2/3 342/2/3 341/2/3
f 345/2/3 344/2/3 343/2/3
f 347/2/3 346/2/3 345/2/3
f 349/2/3 347/2/3 345/2/3
f 349/2/3 348/2/3 347/2/3
f 349/2/3 343/2/3 341/2/3
f 349/2/3 345/2/3 343/2/3
f 349/2/3 341/2/3 338/2/3
f 350/2/3 348/2/3 349/2/3
f 351/1/4 352/1/4 353/1/4
f 353/1/4 352/1/4 354/1/4
f 355/1/4 356/1/4 357/1/4
f 357/1/4 356/1/4 358/1/4
f 359/2/4 360/2/4 363/2/4
f 360/2/4 361/2/4 363/2/4
f 361/1/4 362/1/4 364/1/4
f 363/2/4 361/2/4 364/2/4
f 364/1/4 362/1/4 365/1/4
f 365/1/4 362/1/4 366/1/4
f 366/1/4 362/1/4 367/1/4
f 368/1/4 369/1/4 372/1/4
f 370/2/4 371/2/4 373/2/4
f 373/2/4 371/2/4 374/2/4
f 371/1/4 372/1/4 375/1/4
f 374/2/4 371/2/4 375/2/4
f 372/1/4 369/1/4 376/1/4
f 375/1/4 372/1/4 376/1/4
f 377/1/4 378/1/4 379/1/4
f 379/1/4 378/1/4 380/1/4
f 381/1/4 382/1/4 383/1/4
f 383/1/4 382/1/4 384/1/4
f 385/1/4 386/1/4 387/1/4
f 387/1/4 386/1/4 388/1/4
f 389/1/4 390/1/4 391/1/4
f 391/1/4 390/1/4 392/1/4
f 393/1/4 394/1/4 395/1/4
f 395/1/4 394/1/4 396/1/4
f 397/2/4 398/2/4 399/2/4
f 399/2/4 398/2/4 400/2/4
f 401/2/4 402/2/4 403/2/4
f 403/2/4 402/2/4 404/2/4
f 405/1/4 406/1/4 407/1/4
f 407/1/4 406/1/4 408/1/4
f 409/2/4 410/2/4 411/2/4
f 411/2/4 410/2/4 412/2/4
f 413/2/4 414/2/4 415/2/4
f 415/2/4 414/2/4 416/2/4
f 417/2/4 418/2/4 419/2/4
f 419/2/4 418/2/4 420/2/4
f 421/2/4 422/2/4 423/2/4
f 423/2/4 422/2/4 424/2/4
f 425/2/4 426/2/4 427/2/4
f 427/2/4 426/2/4 428/2/4
f 425/2/4 427/2/4 429/2/4
f 429/2/4 427/2/4 430/2/4
f 425/2/4 429/2/4 431/2/4
f 431/2/4 429/2/4 432/2/4
f 425/2/4 431/2/4 435/2/4
f 435/2/4 431/2/4 436/2/4
f 433/2/4 434/2/4 437/2/4
f 425/2/4 435/2/4 438/2/4
f 433/2/4 437/2/4 439/2/4
f 437/2/4 438/2/4 439/2/4
f 438/2/4 435/2/4 440/2/4
f 439/2/4 438/2/4 440/2/4
f 433/2/4 439/2/4 441/2/4
f 441/2/4 439/2/4 442/2/4
f 440/2/4 435/2/4 443/2/4
f 443/2/4 444/2/4 445/2/4
f 445/2/4 446/2/4 447/2/4
f 447/2/4 448/2/4 449/2/4
f 447/2/4 449/2/4 451/2/4
f 449/2/4 450/2/4 451/2/4
f 443/2/4 445/2/4 451/2/4
f 445/2/4 447/2/4 451/2/4
f 440/2/4 443/2/4 451/2/4
f 451/2/4 450/2/4 452/2/4
f 453/2/4 454/2/4 455/2/4
f 455/2/4 454/2/4 456/2/4
f 457/3/4 458/3/4 459/3/4
f 459/3/4 458/3/4 460/3/4
f 459/4/4 460/4/4 461/4/4
f 461/4/4 460/4/4 462/4/4
f 463/4/4 464/4/4 465/4/4
f 465/4/4 464/4/4 466/4/4
f 465/3/4 466/3/4 467/3/4
f 467/3/4 466/3/4 468/3/4
f 469/1/4 470/1/4 471/1/4
f 471/1/4 470/1/4 472/1/4
f 477/3/5 474/3/5 473/3/5
f 478/3/5 474/3/5 477/3/5
f 479/3/5 476/3/5 475/3/5
f 480/3/5 476/3/5 479/3/5
f 481/3/5 477/3/5 473/3/5
f 482/4/5 478/4/5 477/4/5
f 482/3/5 477/3/5 481/3/5
f 483/4/5 478/4/5 482/4/5
f 484/4/5 480/4/5 479/4/5
f 485/3/5 476/3/5 480/3/5
f 485/4/5 480/4/5 484/4/5
f 486/3/5 476/3/5 485/3/5
f 491/2/5 488/2/5 487/2/5
f 492/2/5 488/2/5 491/2/5
f 493/2/5 490/2/5 489/2/5
f 494/2/5 490/2/5 493/2/5
f 497/1/5 496/1/5 495/1/5
f 498/1/5 496/1/5 497/1/5
f 503/1/5 500/1/5 499/1/5
f 504/1/5 500/1/5 503/1/5
f 505/1/5 502/1/5 501/1/5
f 506/1/5 502/1/5 505/1/5
f 511/2/5 508/2/5 507/2/5
f 512/2/5 508/2/5 511/2/5
f 513/2/5 510/2/5 509/2/5
f 514/2/5 510/2/5 513/2/5
f 519/2/5 516/2/5 515/2/5
f 520/2/5 516/2/5 519/2/5
f 521/2/5 518/2/5 517/2/5
f 522/2/5 518/2/5 521/2/5
f 527/2/5 524/2/5 523/2/5
f 528/2/5 524/2/5 527/2/5
f 529/2/5 526/2/5 525/2/5
f 530/2/5 526/2/5 529/2/5
f 535/2/5 532/2/5 531/2/5
f 536/2/5 532/2/5 535/2/5
f 537/2/5 534/2/5 533/2/5
f 538/2/5 534/2/5 537/2/5
f 543/2/5 540/2/5 539/2/5
f 544/2/5 540/2/5 543/2/5
f 545/2/5 542/2/5 541/2/5
f 546/2/5 542/2/5 545/2/5
f 547/3/6 548/3/6 551/3/6
f 551/3/6 548/3/6 552/3/6
f 549/3/6 550/3/6 553/3/6
f 553/3/6 550/3/6 554/3/6
f 552/3/6 548/3/6 556/3/6
f 556/3/6 548/3/6 557/3/6
f 549/3/6 553/3/6 558/3/6
f 558/3/6 553/3/6 559/3/6
f 547/3/6 551/3/6 561/3/6
f 556/4/6 557/4/6 562/4/6
f 555/4/6 556/4/6 562/4/6
f 559/4/6 560/4/6 563/4/6
f 558/4/6 559/4/6 563/4/6
f 554/3/6 550/3/6 564/3/6
f 547/3/6 561/3/6 565/3/6
f 561/3/6 562/3/6 565/3/6
f 562/4/6 557/4/6 566/4/6
f 565/3/6 562/3/6 566/3/6
f 566/4/6 557/4/6 567/4/6
f 558/4/6 563/4/6 568/4/6
f 563/3/6 564/3/6 569/3/6
f 568/4/6 563/4/6 569/4/6
f 564/3/6 550/3/6 570/3/6
f 569/3/6 564/3/6 570/3/6
f 571/1/6 572/1/6 575/1/6
f 575/1/6 572/1/6 576/1/6
f 573/1/6 574/1/6 577/1/6
f 577/1/6 574/1/6 578/1/6
f 579/1/6 580/1/6 583/1/6
f 583/1/6 580/1/6 584/1/6
f 581/1/6 582/1/6 585/1/6
f 585/1/6 582/1/6 586/1/6
f 587/1/6 588/1/6 591/1/6
f 591/1/6 588/1/6 592/1/6
f 589/1/6 590/1/6 593/1/6
f 593/1/6 590/1/6 594/1/6
f 595/1/6 596/1/6 599/1/6
f 599/1/6 596/1/6 600/1/6
f 600/1/6 596/1/6 601/1/6
f 597/1/6 598/1/6 602/1/6
f 602/1/6 598/1/6 603/1/6
f 603/1/6 598/1/6 604/1/6
f 605/1/6 606/1/6 609/1/6
f 609/1/6 606/1/6 610/1/6
f 607/1/6 608/1/6 611/1/6
f 611/1/6 608/1/6 612/1/6
f 613/1/6 614/1/6 617/1/6
f 615/1/6 616/1/6 618/1/6
f 613/1/6 617/1/6 619/1/6
f 619/1/6 617/1/6 620/1/6
f 618/1/6 616/1/6 621/1/6
f 621/1/6 616/1/6 622/1/6
f 623/1/6 624/1/6 625/1/6
f 625/1/6 624/1/6 626/1/6
f 626/1/6 624/1/6 627/1/6
f 627/1/6 624/1/6 628/1/6
f 626/1/6 627/1/6 629/1/6
f 629/1/6 627/1/6 630/1/6
f 626/1/6 629/1/6 631/1/6
f 630/1/6 627/1/6 632/1/6
f 626/1/6 631/1/6 633/1/6
f 631/1/6 632/1/6 633/1/6
f 632/1/6 627/1/6 634/1/6
f 633/1/6 632/1/6 634/1/6
f 635/2/6 636/2/6 637/2/6
f 637/2/6 636/2/6 638/2/6
f 639/2/6 640/2/6 643/2/6
f 643/2/6 640/2/6 644/2/6
f 641/2/6 642/2/6 645/2/6
f 645/2/6 642/2/6 646/2/6
f 647/2/6 648/2/6 649/2/6
f 649/2/6 648/2/6 650/2/6
f 651/2/6 652/2/6 655/2/6
f 655/2/6 652/2/6 656/2/6
f 653/2/6 654/2/6 657/2/6
f 657/2/6 654/2/6 658/2/6
f 659/2/6 660/2/6 663/2/6
f 663/2/6 660/2/6 664/2/6
f 661/2/6 662/2/6 665/2/6
f 665/2/6 662/2/6 666/2/6
f 667/2/6 668/2/6 671/2/6
f 671/2/6 668/2/6 672/2/6
f 669/2/6 670/2/6 673/2/6
f 673/2/6 670/2/6 674/2/6
f 675/2/6 676/2/6 679/2/6
f 679/2/6 676/2/6 680/2/6
f 677/2/6 678/2/6 681/2/6
f 681/2/6 678/2/6 682/2/6
f 683/2/6 684/2/6 687/2/6
f 687/2/6 684/2/6 688/2/6
f 685/2/6 686/2/6 689/2/6
f 689/2/6 686/2/6 690/2/6
f 691/2/6 692/2/6 695/2/6
f 695/2/6 692/2/6 696/2/6
f 693/2/6 694/2/6 697/2/6
f 697/2/6 694/2/6 698/2/6
f 699/2/6 700/2/6 703/2/6
f 703/2/6 700/2/6 704/2/6
f 701/2/6 702/2/6 705/2/6
f 705/2/6 702/2/6 706/2/6
